<svg id="Layer_1" data-name="Layer 1" xmlns="http://www.w3.org/2000/svg" viewBox="0 0 283.46 141.73"><defs><style>.cls-1{fill:#f3c92e;}.cls-2{fill:#f4ca28;}.cls-3{fill:#fff;}</style></defs><path class="cls-1" d="M75.75,82.26c-2.87-7.58-8.1-12.48-16.32-13.77l-1.49-.21a1.57,1.57,0,0,1,.84-.44,18.33,18.33,0,0,0,13-10.61,31,31,0,0,0,1.46-21.88A21.59,21.59,0,0,0,58.37,19.83a39.85,39.85,0,0,0-12.22-1.76q-20.61,0-41.23,0h-1v14c2.26-1.32,4.7-1,6.92.9,1.11,1,1.86,2.33,2.93,3.34a6.45,6.45,0,0,0,2.91,1.88c2,.34,3.57.9,4.25,2.88a6.3,6.3,0,0,1-1,6.1,17.41,17.41,0,0,0-2.43,4.07,5.52,5.52,0,0,0,2.09,6.6c2.57,2,5.17,4,7.71,6,1,.83,1.75.38,2.08-.51a18.58,18.58,0,0,0,1.1-4.45c.21-2,.11-4.08.15-6.12A6.83,6.83,0,0,0,29,47.73a2.37,2.37,0,0,1-.27-2.16A2,2,0,0,1,30.6,45a3.21,3.21,0,0,1,1.11,1.93c.36,1.36.35,2.83.83,4.14a2.09,2.09,0,0,0,3.71.7c1.82-2.19,3.77-4.34,4-7.45a2,2,0,0,1,1.23-1.45,1.94,1.94,0,0,1,1.7.8,2.11,2.11,0,0,1-.46,1.86c-2.23,2.24-2.74,5.24-3.57,8.06A2.08,2.08,0,0,0,41.58,56c1.29-.16,2.53-.67,3.82-.89a3.34,3.34,0,0,1,2.09.17,1.78,1.78,0,0,1,.27,1.68,2.89,2.89,0,0,1-2.07.75A9.64,9.64,0,0,0,35.8,62.2c-1.07,1.86-2.07,3.77-3.24,5.58-1.66,2.59-3.59,3.15-6.38,1.83-2-1-3.86-2.13-6-3.36,2.39,3.17,1.42,6.57,1.36,9.87a2.1,2.1,0,0,1-1.34,2,19.55,19.55,0,0,0-4.05,2.75c2.63-.92,5.22-2,7.92-2.7a35.81,35.81,0,0,1,8-1.14c3.44-.06,4.66,1.85,3.59,5.14-1.29,4-3.8,7.2-6.34,10.41-.55.69-1.13,1.35-1.8,2.16,3.48-1.62,6.88-3.06,10.13-4.76a6.23,6.23,0,0,0,3.2-4.8c.35-2.38,1.06-4.74.11-7.19a2.18,2.18,0,0,1,.84-1.89,2.15,2.15,0,0,1,2.05.11,2.9,2.9,0,0,1,.55,2.19c-.19,1.51-.84,3-.91,4.48-.13,3,2.3,4.56,5,3.36,2.47-1.08,4.92-2.21,6.57-4.57a2.35,2.35,0,0,1,2.14-.52,2.07,2.07,0,0,1,1.06,1.74,2.41,2.41,0,0,1-1.45,1.65c-3,.63-5.46,2.34-7.82,4.16s-2.08,4.5.42,5.82a35.08,35.08,0,0,0,4.76,1.74c.61.22,1.6.31,1.74.7a3.24,3.24,0,0,1,0,2.49c-.63,1-1.75.83-2.6.06-3.11-2.81-7-3.59-10.93-4.31a11,11,0,0,0-7.17,1.48c-3.18,1.66-6.35,3.34-9.57,4.92a13.12,13.12,0,0,1-3.31,1,3.15,3.15,0,0,1-4-3.37,10.07,10.07,0,0,1,1-4c1.06-2.16,2.42-4.19,3.71-6.37-1.46,1.13-2.9,2.21-4.3,3.35a20.89,20.89,0,0,1-14.74,5v26.23H41.76a50.52,50.52,0,0,0,16.93-1.67c5.62-1.79,10.37-4.81,13.67-9.81C77.57,104.17,79.1,91.11,75.75,82.26Z"/><rect class="cls-2" x="93.05" y="104.45" width="69.71" height="19.22"/><rect x="244.5" y="93.27" width="9.5" height="7.88"/><path d="M98.41,18.67H117a17.76,17.76,0,0,1,7.51,1.23,11,11,0,0,1,4.14,3.5,9.24,9.24,0,0,1,1.64,5.54q0,6.63-7.18,8.84a10.24,10.24,0,0,1,6.21,3.71,9.86,9.86,0,0,1,2.08,6A10.36,10.36,0,0,1,128,55.27q-3.39,3.25-11,3.25H98.41Zm9.31,7v8.73h7.06q3.89,0,4.89-1.53a5.34,5.34,0,0,0,1-2.94,4.22,4.22,0,0,0-.83-2.61A3.5,3.5,0,0,0,118,26a17.33,17.33,0,0,0-3.92-.28Zm0,15.82v9.61h7.17q3.66,0,5.18-1.29a4.44,4.44,0,0,0,1.52-3.59,4.49,4.49,0,0,0-1.46-3.33q-1.45-1.4-4.84-1.4Z"/><path d="M146.81,50.64h15.85v7.88H137.35V18.67h9.46Z"/><path d="M187,18.67l12.48,39.85h-10L187,50.32H174.13l-2.49,8.2h-8.19l12.77-39.85ZM176.37,43h8.45l-4.19-14Z"/><path d="M234.63,33.51l-9.78.61q-.21-8.44-6.59-8.44-7.31,0-7.31,13,0,7.5,2,10.18a6.54,6.54,0,0,0,5.56,2.67q5.79,0,7.08-7.53l9,.55q-.88,7.16-5.33,10.88a17.85,17.85,0,0,1-23.76-1.74q-4.95-5.46-4.95-15.1,0-9,4.78-14.77t13.08-5.75Q232.82,18.06,234.63,33.51Z"/><path d="M249.17,18.67V37.4l12.49-18.73h8.93L261,32.9l12,25.62H262.71l-7.95-17.3-5.59,8.17v9.13H240V18.67Z"/><path d="M126.93,69.18H108.28v8.93H123v7.45H108.28v15.59h-9.7V61.3h28.35Z"/><path d="M141.12,85.35v15.8h-9.4V61.3h17.52A22.21,22.21,0,0,1,157,62.42a10.07,10.07,0,0,1,4.86,4.13,12.14,12.14,0,0,1,1.92,6.68q0,7.17-6.91,10.3l7.35,17.62H153.93l-6.12-15.8Zm0-17V78.55h5.72a15.15,15.15,0,0,0,4.07-.39,4.55,4.55,0,0,0,2.27-1.75,5.17,5.17,0,0,0,1-3.11,4.81,4.81,0,0,0-1-3A4,4,0,0,0,151,68.7a20,20,0,0,0-4.38-.31Z"/><path d="M185.19,101.76q-8.06,0-12.46-6a24.21,24.21,0,0,1-4.4-14.63q0-8.73,4.46-14.57t12.72-5.84q8.34,0,12.59,6.24a24.72,24.72,0,0,1,4.24,14.26A24.1,24.1,0,0,1,198,95.81Q193.59,101.77,185.19,101.76Zm.26-33.46q-7.33,0-7.34,12.91t7.34,12.93q7.11,0,7.11-12.9T185.45,68.3Z"/><path d="M239.48,79.84v21.31h-4.27a31.34,31.34,0,0,0-1.32-4.59,13.45,13.45,0,0,1-10.87,5.2q-7.8,0-12.14-5.58t-4.34-14.42q0-9.51,4.63-15.3a15.27,15.27,0,0,1,12.57-5.78q6.66,0,10.74,3.74a16.16,16.16,0,0,1,5,10l-8.88,1.16q-1.08-7.23-6.86-7.24A6.24,6.24,0,0,0,218,71.73q-1.94,3.43-1.94,9.8,0,6.14,2.1,9.37a6.74,6.74,0,0,0,6,3.24,6.82,6.82,0,0,0,4.48-1.63c1.31-1.09,2-2.84,2-5.23h-7.5V79.84Z"/><path class="cls-3" d="M105.37,105.79h3.21l6.38,16.6h-3.28l-1.3-3.42H103.6l-1.35,3.42H99Zm1.62,4.4-2.22,5.7h4.44Z"/><path class="cls-3" d="M117.29,105.79h3.17v10.73a5.58,5.58,0,0,0,.24,2,2,2,0,0,0,.8.92,2.82,2.82,0,0,0,2.79,0,2.06,2.06,0,0,0,.84-1,7.42,7.42,0,0,0,.23-2.26V105.79h3.17v9.89a14.34,14.34,0,0,1-.28,3.48,4.92,4.92,0,0,1-1.08,1.87,5,5,0,0,1-1.83,1.34,6.26,6.26,0,0,1-2.42.43,5.77,5.77,0,0,1-3.14-.83,4.78,4.78,0,0,1-1.91-2.07,10.84,10.84,0,0,1-.58-4.22Z"/><path class="cls-3" d="M130.56,105.79h9.18v3.11h-3v13.49h-3.2V108.9h-2.95Z"/><path class="cls-3" d="M149.74,105.37a8.25,8.25,0,0,1,6.06,2.55,8.48,8.48,0,0,1,2.53,6.22,8.39,8.39,0,0,1-2.5,6.15,8.68,8.68,0,0,1-12.28-.07,8.73,8.73,0,0,1,6.19-14.85Zm0,3.09a5.24,5.24,0,0,0-3.87,1.6,5.58,5.58,0,0,0-1.57,4.08,5.29,5.29,0,0,0,2,4.35,5.39,5.39,0,0,0,3.52,1.26,5.16,5.16,0,0,0,3.83-1.63,5.49,5.49,0,0,0,1.58-4,5.58,5.58,0,0,0-1.59-4A5.21,5.21,0,0,0,149.7,108.46Z"/><path d="M167.83,122.39v-16.6h3.45a17.88,17.88,0,0,1,5.4.59,7.3,7.3,0,0,1,3.78,2.94,9,9,0,0,1,1.36,5,8.74,8.74,0,0,1-1.08,4.39,6.89,6.89,0,0,1-2.8,2.79,10.46,10.46,0,0,1-4.83.91Zm1.59-1.57h1.92a17.72,17.72,0,0,0,4.78-.43,5.52,5.52,0,0,0,2.94-2.19,6.73,6.73,0,0,0,1.07-3.88,7,7,0,0,0-1.16-4.1,5.78,5.78,0,0,0-3.24-2.33,19.33,19.33,0,0,0-5.13-.48h-1.18Z"/><path d="M185,105.79h9.52v1.62H186.7v5.2h7.79v1.63H186.7v6.52h7.79v1.63H185Z"/><path d="M195.77,107.41v-1.62h9.1v1.62h-3.7v15h-1.69v-15Z"/><path d="M214,105.79l7.75,16.6H220l-2.61-5.47h-7.15l-2.58,5.47h-1.86l7.85-16.6Zm-.21,3.52-2.84,6h5.68Z"/><path d="M224.12,105.79h1.66v16.6h-1.66Z"/><path d="M229.58,105.79h1.66v15h6.39v1.61h-8Z"/><path d="M240,105.79h1.66v16.6H240Z"/><path d="M245.49,122.39v-16.6h.36l11,12.72V105.79h1.64v16.6h-.37l-11-12.57v12.57Z"/><path d="M278.59,108.57l-1.29,1.22a9.67,9.67,0,0,0-3-2.07A8.14,8.14,0,0,0,271,107a7.69,7.69,0,0,0-3.72,1,6.91,6.91,0,0,0-2.73,2.6,6.67,6.67,0,0,0-1,3.47,6.85,6.85,0,0,0,1,3.56,7.16,7.16,0,0,0,2.78,2.65,8,8,0,0,0,3.88,1,6.63,6.63,0,0,0,4.33-1.44,5.7,5.7,0,0,0,2.1-3.75h-5.29v-1.6h7.15a8.29,8.29,0,0,1-2.28,6.11,8.19,8.19,0,0,1-6.06,2.26,9.1,9.1,0,0,1-7.29-3.13,8.37,8.37,0,0,1-2.06-5.59,8.62,8.62,0,0,1,4.43-7.57,9.54,9.54,0,0,1,4.68-1.14,10.35,10.35,0,0,1,4,.76A11.89,11.89,0,0,1,278.59,108.57Z"/></svg>