<svg id="Layer_1" data-name="Layer 1" xmlns="http://www.w3.org/2000/svg" viewBox="0 0 512 512"><defs><style>.cls-1{fill:#2d579e;}.cls-2{fill:#f3c92e;}.cls-3{fill:#f4ca28;}.cls-4{fill:#fff;}</style></defs><rect class="cls-1" x="-6.35" y="-8.5" width="524.7" height="529"/><path class="cls-2" d="M155.34,273.38c-4.37-11.56-12.35-19-24.88-21-.76-.12-1.53-.22-2.29-.33a2.36,2.36,0,0,1,1.29-.66c9.22-2.2,16-7.59,19.9-16.19,4.94-10.79,5.43-22.06,2.23-33.38C148.24,190,140.65,182,128.83,178.15a60.31,60.31,0,0,0-18.63-2.68q-31.44,0-62.9,0H45.73v21.37c3.45-2,7.17-1.58,10.56,1.38,1.69,1.46,2.83,3.55,4.46,5.09,1.28,1.21,2.84,2.59,4.45,2.87,3,.52,5.45,1.37,6.48,4.39a9.64,9.64,0,0,1-1.48,9.31,26.36,26.36,0,0,0-3.7,6.21c-1.46,3.93-.15,7.49,3.17,10.07,3.93,3,7.9,6,11.77,9.16,1.57,1.27,2.67.58,3.17-.78a28,28,0,0,0,1.68-6.78c.32-3.09.18-6.22.24-9.34A10.5,10.5,0,0,0,84,220.7a3.55,3.55,0,0,1-.42-3.28,3,3,0,0,1,2.89-.95c.85.45,1.4,1.84,1.68,2.93.55,2.08.55,4.33,1.27,6.33a3.19,3.19,0,0,0,5.67,1.06c2.77-3.34,5.75-6.62,6.11-11.36a3.1,3.1,0,0,1,1.87-2.22,3,3,0,0,1,2.59,1.23,3.19,3.19,0,0,1-.68,2.83c-3.42,3.43-4.19,8-5.46,12.3-.6,2,1.44,4,3.69,3.71,2-.24,3.87-1,5.84-1.37a5.12,5.12,0,0,1,3.17.27,2.7,2.7,0,0,1,.43,2.56,4.41,4.41,0,0,1-3.16,1.14,14.73,14.73,0,0,0-15.09,6.89c-1.63,2.85-3.16,5.77-4.94,8.52-2.54,4-5.47,4.81-9.74,2.79-3-1.44-5.88-3.25-9.21-5.12,3.65,4.84,2.17,10,2.08,15.06a3.22,3.22,0,0,1-2.06,3.11,30.17,30.17,0,0,0-6.17,4.2c4-1.41,8-3.11,12.08-4.13a55.06,55.06,0,0,1,12.16-1.74c5.25-.08,7.11,2.83,5.48,7.84-2,6-5.8,11-9.67,15.88-.84,1.05-1.72,2.07-2.75,3.3,5.31-2.47,10.49-4.67,15.46-7.27a9.46,9.46,0,0,0,4.87-7.32c.54-3.63,1.61-7.23.17-11-.28-.73.52-2.4,1.29-2.88a3.26,3.26,0,0,1,3.13.16,4.48,4.48,0,0,1,.83,3.34c-.28,2.3-1.28,4.54-1.38,6.84-.2,4.52,3.5,6.95,7.66,5.13,3.77-1.65,7.51-3.38,10-7a3.59,3.59,0,0,1,3.25-.79,3.16,3.16,0,0,1,1.63,2.65,3.65,3.65,0,0,1-2.21,2.52c-4.64,1-8.34,3.58-11.94,6.35-3.44,2.65-3.16,6.85.65,8.88a53.27,53.27,0,0,0,7.27,2.65c.92.33,2.43.48,2.64,1.07a5,5,0,0,1,0,3.8c-1,1.5-2.67,1.26-4,.08-4.74-4.28-10.71-5.47-16.68-6.57-3.88-.71-7.5.46-10.93,2.25-4.85,2.54-9.69,5.1-14.6,7.52a19.93,19.93,0,0,1-5,1.56c-3.56.67-6.26-1.51-6.12-5.14a15.78,15.78,0,0,1,1.47-6.05c1.63-3.3,3.7-6.39,5.67-9.72-2.22,1.73-4.43,3.37-6.56,5.11a31.84,31.84,0,0,1-22.49,7.59v40H103.5c7.15.75,19-.39,25.83-2.55,8.56-2.72,15.81-7.33,20.85-15C158.12,306.8,160.46,286.88,155.34,273.38Z"/><rect class="cls-3" x="181.73" y="307.23" width="106.33" height="29.32"/><rect x="412.76" y="290.17" width="14.5" height="12.02"/><path d="M189.91,176.39h28.32q7.62,0,11.45,1.86a16.75,16.75,0,0,1,6.32,5.34,14.09,14.09,0,0,1,2.5,8.46q0,10.09-11,13.48,6.33,1.42,9.49,5.66a15.14,15.14,0,0,1,3.16,9.23A15.78,15.78,0,0,1,235,232.2q-5.16,5-16.79,5H189.91Zm14.21,10.73v13.31h10.77q5.93,0,7.46-2.33a8.19,8.19,0,0,0,1.54-4.48,6.41,6.41,0,0,0-1.27-4,5.42,5.42,0,0,0-2.78-2.09,27,27,0,0,0-6-.42Zm0,24.14v14.65h10.93c3.73,0,6.37-.66,7.91-2a7.28,7.28,0,0,0,.09-10.56q-2.22-2.13-7.38-2.13Z"/><path d="M263.75,225.15h24.18v12H249.32V176.39h14.43Z"/><path d="M325.1,176.39l19,60.78h-15.3l-3.75-12.51H305.43l-3.81,12.51H289.13l19.49-60.78Zm-16.26,37.05h12.88l-6.38-21.33Z"/><path d="M397.7,199l-14.91.93q-.32-12.87-10.05-12.87-11.14,0-11.15,19.82,0,11.45,3,15.52a10,10,0,0,0,8.48,4.08q8.83,0,10.8-11.49l13.8.84q-1.33,10.92-8.12,16.59a25.07,25.07,0,0,1-16.64,5.68q-12.06,0-19.61-8.33t-7.55-23q0-13.77,7.3-22.54T373,175.45Q394.95,175.45,397.7,199Z"/><path d="M419.88,176.39V205l19.06-28.56h13.63L438,198.09l18.25,39.08H440.54l-12.13-26.39-8.53,12.45v13.94h-14V176.39Z"/><path d="M233.42,253.43H205v13.63h22.49v11.35H205v23.78H190.18V241.4h43.24Z"/><path d="M255.07,278.1v24.09H240.73V241.4h26.72a34,34,0,0,1,11.87,1.72,15.23,15.23,0,0,1,7.41,6.3,18.46,18.46,0,0,1,2.94,10.19q0,10.93-10.56,15.71l11.23,26.87H274.6l-9.33-24.09Zm0-25.87v15.49h8.73a23,23,0,0,0,6.21-.6,6.85,6.85,0,0,0,3.45-2.67,7.81,7.81,0,0,0,1.51-4.74,7.35,7.35,0,0,0-1.51-4.55,6.26,6.26,0,0,0-3.3-2.47,31.33,31.33,0,0,0-6.68-.46Z"/><path d="M322.29,303.13q-12.29,0-19-9.22t-6.72-22.31q0-13.32,6.81-22.22t19.4-8.91q12.72,0,19.2,9.51a37.7,37.7,0,0,1,6.47,21.75q0,13.23-6.67,22.31T322.29,303.13Zm.4-51q-11.2,0-11.2,19.69t11.2,19.72q10.85,0,10.84-19.68T322.69,252.09Z"/><path d="M405.1,269.68v32.51h-6.5a48.32,48.32,0,0,0-2-7A20.48,20.48,0,0,1,380,303.13q-11.89,0-18.52-8.51t-6.61-22q0-14.52,7.06-23.33t19.17-8.82q10.15,0,16.39,5.7t7.61,15.18l-13.54,1.79q-1.65-11.05-10.46-11a9.5,9.5,0,0,0-8.75,5.23q-3,5.24-3,14.95,0,9.35,3.21,14.29a10.25,10.25,0,0,0,9.13,4.94,10.45,10.45,0,0,0,6.84-2.49q3-2.49,3-8H380.12V269.68Z"/><path class="cls-4" d="M200.53,309.27h4.89l9.74,25.32h-5l-2-5.22H197.84l-2.06,5.22h-5ZM203,316l-3.4,8.7h6.77Z"/><path class="cls-4" d="M218.72,309.27h4.83v16.37a8.72,8.72,0,0,0,.37,3,3.06,3.06,0,0,0,1.22,1.4,3.87,3.87,0,0,0,2.06.52,4,4,0,0,0,2.2-.58,3.13,3.13,0,0,0,1.27-1.49A10.92,10.92,0,0,0,231,325V309.27h4.84v15.1a21.78,21.78,0,0,1-.43,5.3,7.5,7.5,0,0,1-1.64,2.85,7.65,7.65,0,0,1-2.8,2,9.33,9.33,0,0,1-3.68.67,8.87,8.87,0,0,1-4.8-1.27,7.4,7.4,0,0,1-2.92-3.16,16.9,16.9,0,0,1-.87-6.43Z"/><path class="cls-4" d="M239,309.27h14V314h-4.61v20.57h-4.89V314H239Z"/><path class="cls-4" d="M268.21,308.63a12.56,12.56,0,0,1,9.24,3.89,13,13,0,0,1,3.87,9.49,12.82,12.82,0,0,1-3.81,9.38,13.23,13.23,0,0,1-18.74-.1,13.31,13.31,0,0,1,9.44-22.66Zm0,4.72a8,8,0,0,0-5.91,2.44,8.5,8.5,0,0,0-2.39,6.22,8.09,8.09,0,0,0,3,6.64,8.24,8.24,0,0,0,5.38,1.91,7.83,7.83,0,0,0,5.84-2.48,8.94,8.94,0,0,0,0-12.23A7.92,7.92,0,0,0,268.16,313.35Z"/><path d="M295.82,334.59V309.27h5.25a26.76,26.76,0,0,1,8.24.91,11,11,0,0,1,5.76,4.48,13.6,13.6,0,0,1,2.07,7.59,13.24,13.24,0,0,1-1.64,6.69,10.5,10.5,0,0,1-4.27,4.27,16,16,0,0,1-7.36,1.38Zm2.42-2.39h2.93a27,27,0,0,0,7.28-.66,8.32,8.32,0,0,0,4.49-3.34,10.3,10.3,0,0,0,1.64-5.91,10.85,10.85,0,0,0-1.77-6.26,9,9,0,0,0-4.94-3.56,30.06,30.06,0,0,0-7.84-.72h-1.79Z"/><path d="M322.07,309.27h14.51v2.48h-12v7.93h11.87v2.48H324.6v9.95h11.87v2.48h-14.4Z"/><path d="M338.44,311.75v-2.48h13.87v2.48h-5.65v22.84h-2.58V311.75Z"/><path d="M366.31,309.27l11.8,25.32h-2.73l-4-8.33H360.49l-3.94,8.33h-2.83l12-25.32Zm-.32,5.38-4.34,9.16h8.65Z"/><path d="M381.68,309.27h2.53v25.32h-2.53Z"/><path d="M390,309.27h2.53v22.88h9.74v2.44H390Z"/><path d="M405.93,309.27h2.53v25.32h-2.53Z"/><path d="M414.28,334.59V309.27h.55l16.85,19.41V309.27h2.5v25.32h-.57L416.9,315.42v19.17Z"/><path d="M464.77,313.52l-2,1.86a15.13,15.13,0,0,0-4.64-3.16,12.42,12.42,0,0,0-4.92-1.07,11.68,11.68,0,0,0-5.67,1.46,10.5,10.5,0,0,0-4.17,4,10.2,10.2,0,0,0-1.48,5.29,10.49,10.49,0,0,0,1.53,5.43,10.92,10.92,0,0,0,4.23,4.05,12.2,12.2,0,0,0,5.92,1.47,10.11,10.11,0,0,0,6.61-2.21,8.67,8.67,0,0,0,3.21-5.71h-8.08v-2.45h10.92q0,5.88-3.49,9.33a12.49,12.49,0,0,1-9.24,3.45,13.9,13.9,0,0,1-11.12-4.79,12.7,12.7,0,0,1-3.15-8.52,13.13,13.13,0,0,1,1.81-6.7,12.89,12.89,0,0,1,5-4.84,14.4,14.4,0,0,1,7.13-1.75,16,16,0,0,1,6.06,1.16A18.2,18.2,0,0,1,464.77,313.52Z"/></svg>