<svg id="Layer_1" data-name="Layer 1" xmlns="http://www.w3.org/2000/svg" viewBox="0 0 512 512"><defs><style>.cls-1{fill:#2a2a2a;}.cls-2{fill:#bb9c6b;}.cls-3{fill:#bc9b6a;}.cls-4{fill:#bc9b6b;}.cls-5{fill:#fff;}</style></defs><rect class="cls-1" x="-17.82" y="-9.01" width="536.17" height="536.17"/><path class="cls-2" d="M256.14,370.74h168.1c2.5,0,2.18-.32,2.2,2.18,0,1.26,0,2.55,0,3.81,0,1.06,0,1.06-1.14,1.1H87.6c-2.28,0-2,.28-2-2,0-1.32,0-2.64,0-4,0-1.06,0-1.06,1.14-1.1.45,0,.92,0,1.37,0Z"/><path class="cls-3" d="M281,241.94c-.27.71-.79.87-1.18,1.16q-7.51,5.49-15.05,11c-1.1.79-1.1.82-.67,2.1,1.9,5.8,3.79,11.58,5.66,17.38.16.51.55,1,.27,1.61a3.51,3.51,0,0,1-1.55-.93q-7.25-5.23-14.43-10.49c-1.51-1.1-1.29-1-2.59,0l-15,10.93a2.28,2.28,0,0,1-1.29.67c.86-2.64,1.69-5.19,2.51-7.73,1.26-3.87,2.48-7.74,3.8-11.58a1.38,1.38,0,0,0-.61-1.88c-5.07-3.64-10.11-7.35-15.16-11a3,3,0,0,1-1.2-1.16h20.07c1.44,0,1.44,0,1.89-1.37q2.88-8.82,5.74-17.69l.47-1.34a2.74,2.74,0,0,1,.75,1.55c1.9,5.8,3.79,11.58,5.66,17.38.57,1.77.53,1.45,2,1.47C267.62,241.94,274.24,241.94,281,241.94Z"/><path class="cls-3" d="M183.63,254.5h14.25c1.36,0,1.36,0,1.79-1.3,1.32-4.06,2.65-8.13,4-12.18.14-.43.3-.85.45-1.32a3.62,3.62,0,0,1,.75,1.71c1.24,3.76,2.44,7.53,3.69,11.3.65,2,.3,1.77,2.52,1.79,4,0,8,0,12,0h1.53c-.18.69-.65.83-1,1.1l-10.24,7.45c-1.24.89-1.22.89-.75,2.34,1.32,4.05,2.62,8.12,4,12.17a2.23,2.23,0,0,1,.24,1.21,2.78,2.78,0,0,1-1.28-.76c-3.46-2.5-6.9-5-10.36-7.53-1-.73-1-.73-2.06,0-3.46,2.5-6.9,5-10.36,7.53-.37.27-.67.63-1.18.67-.17-.59.18-1.09.34-1.6,1.29-4,2.59-8,3.89-12.06.37-1.14.37-1.16-.61-1.85L185,255.76A2.69,2.69,0,0,1,183.63,254.5Z"/><path class="cls-3" d="M312.92,278.75c-.55-.07-.87-.47-1.28-.76-3.46-2.5-6.9-5-10.36-7.53-1-.73-1-.73-2.06,0-3.46,2.5-6.9,5-10.36,7.53a2.89,2.89,0,0,1-1.2.71c-.21-.59.16-1.07.3-1.58,1.26-3.91,2.55-7.82,3.81-11.73.49-1.49.47-1.46-.73-2.34l-10.24-7.43c-.37-.27-.8-.45-1-.94.32-.36.75-.18,1.12-.18,4.31,0,8.63,0,12.95,0,1.73,0,1.4,0,1.87-1.39,1.46-4.43,2.89-8.87,4.36-13.39a1.63,1.63,0,0,1,.57,1c1.32,4.11,2.66,8.2,4,12.31.46,1.43.46,1.45,2,1.45h12.5a3.35,3.35,0,0,1,1.47.12c-.19.59-.65.73-1,1-3.44,2.52-6.9,5-10.36,7.53-1.1.79-1.1.82-.68,2.12,1.33,4.11,2.67,8.2,4,12.31A1.81,1.81,0,0,1,312.92,278.75Z"/><path class="cls-3" d="M142,255.35h6.51c1.67,0,3.36-.06,5,0a1.32,1.32,0,0,0,1.51-1.1c1-3.23,2.07-6.47,3.13-9.71.14-.42.29-.83.47-1.34a2.89,2.89,0,0,1,.73,1.57c1,3.13,2.08,6.27,3,9.42a1.41,1.41,0,0,0,1.61,1.18c3.3-.06,6.6,0,9.92,0h1.63a3.29,3.29,0,0,1-1.2,1.21c-2.59,1.87-5.2,3.74-7.78,5.63-1.26.92-1.26.92-.8,2.37q1.56,4.79,3.1,9.56c.12.37.39.74.12,1.25-1.24-.9-2.48-1.77-3.7-2.67-1.94-1.41-3.87-2.79-5.79-4.24a1.1,1.1,0,0,0-1.58,0c-2.69,2-5.42,3.94-8.15,5.9-.4.28-.73.73-1.3.73-.26-.55.06-1,.2-1.46,1-3.1,2-6.17,3-9.27.4-1.28.4-1.28-.72-2.09-2.54-1.86-5.11-3.69-7.65-5.54-.49-.35-1-.73-1.45-1.1A2.34,2.34,0,0,0,142,255.35Z"/><path class="cls-3" d="M363.59,255.64c-2,1.44-4,2.91-6,4.36l-3.34,2.42c-.94.69-1,.71-.57,1.89,1,3.06,2,6.09,3,9.14a3.29,3.29,0,0,1,.37,1.69c-.61,0-1-.47-1.39-.75-2.69-1.94-5.37-3.85-8-5.84a1.25,1.25,0,0,0-1.83,0c-2.73,2-5.5,4-8.27,6-.32.23-.59.57-1,.57-.33-.53.06-1,.2-1.42,1-3.16,2-6.29,3-9.43.37-1.14.37-1.16-.61-1.87L331.69,257l-1.83-1.34c.22-.51.63-.31.94-.31,3.5,0,7,0,10.52,0,1.28,0,1.28,0,1.69-1.22,1-3.19,2.08-6.37,3.09-9.57.15-.4.29-.83.49-1.36a3.52,3.52,0,0,1,.74,1.61q1.51,4.63,3,9.28c.41,1.28.43,1.28,1.79,1.28h11.28A.64.64,0,0,1,363.59,255.64Z"/><path class="cls-3" d="M293.93,112.73c.67.81,1.24,1.5,1.79,2.24,4.58,6,4.46,13.21-.29,19.11a21.56,21.56,0,0,1-13.64,7.68,7.76,7.76,0,0,0-1.63.4c.17.43.6.55.92.76a10.05,10.05,0,0,1,4.89,8,16.83,16.83,0,0,1-4.28,13.27,35.06,35.06,0,0,1-18.91,11.06,14.27,14.27,0,0,1-6.66.1,5.16,5.16,0,0,1-3.56-2.38,5.68,5.68,0,0,1-.24-4.32,12.35,12.35,0,0,1,4.7-6.41,37.51,37.51,0,0,1,15.73-7,7.3,7.3,0,0,1,.92-.08c.43,0,.65.15.71.59a.63.63,0,0,1-.51.8c-.69.18-1.38.34-2.05.53-4.24,1.16-8.39,2.44-12,5a20,20,0,0,0-5,4.93,6.52,6.52,0,0,0-1.16,2.95,3.18,3.18,0,0,0,2.32,3.5,8.5,8.5,0,0,0,5.39-.14,27,27,0,0,0,9.72-5.29A32.07,32.07,0,0,0,281,154.79a14.64,14.64,0,0,0,1-6.11,6.33,6.33,0,0,0-3.63-5.6,2.12,2.12,0,0,0-1.32-.14,32.59,32.59,0,0,1-4.42.1,4.05,4.05,0,0,1-1.89-.51,1,1,0,0,1,.12-1.87,6.48,6.48,0,0,1,3.46-.27,16.77,16.77,0,0,1,2.83.61,3.76,3.76,0,0,0,2.39-.06c8.34-2.69,13.31-8.47,15.37-16.83a10.5,10.5,0,0,0-2.14-9.35c-.67-.83-.69-.87-1.59-.28a78.16,78.16,0,0,0-8.43,6.78,89.37,89.37,0,0,0-14.59,17.34c-3.81,5.72-7.54,11.48-11.77,16.9a56.37,56.37,0,0,1-14.21,13.25,49.13,49.13,0,0,1-17.71,6.66,47.18,47.18,0,0,1-10.94.59,19.92,19.92,0,0,1-8.59-2.34,6.51,6.51,0,0,1-3.56-4.5,6.24,6.24,0,0,1,1.28-5.17,8.77,8.77,0,0,1,6.07-3.44,3.65,3.65,0,0,1,2.08.38,2.59,2.59,0,0,1,1.36,3.2A3.19,3.19,0,0,1,207.2,166c-.71-.51-1.38-1.1-2.34-.61a2.7,2.7,0,0,0-1.44,2.53,4.55,4.55,0,0,0,2.3,4.21,14.91,14.91,0,0,0,6.29,2.14c10.28,1.28,19.23-1.79,27.19-8.23a77,77,0,0,0,12.3-13.09c5-6.37,9.89-12.78,15.19-18.91a112.32,112.32,0,0,1,23.1-20.48c.33-.22.76-.33.92-.83a24.48,24.48,0,0,0-6.47-3.57,33.92,33.92,0,0,0-8.92-1.87,53,53,0,0,0-11.26.14,55.74,55.74,0,0,0-15.69,4.16,56.57,56.57,0,0,0-15.19,9.24A36,36,0,0,0,224,132.27a16.84,16.84,0,0,0-1.83,8.24,6.7,6.7,0,0,0,3.17,5.6,11,11,0,0,0,7.13,1.67c4.88-.36,9.08-2.46,13.09-5A51,51,0,0,0,262,125.21a43.66,43.66,0,0,0,4-9.37c.18-.59.36-1.06,1.12-.94.36.07.57.21.48.59-.16.7-.34,1.39-.55,2.06a47.66,47.66,0,0,1-15.92,24.23,36.29,36.29,0,0,1-16.61,7.57,16,16,0,0,1-7-.2,10.06,10.06,0,0,1-7.35-11.3c.69-4.58,2.87-8.43,5.64-12a49.39,49.39,0,0,1,15.94-13,58.89,58.89,0,0,1,19.69-6.6c7.24-1,14.47-1.12,21.62.8a24.32,24.32,0,0,1,8.2,3.9,2,2,0,0,0,2.57,0,45.27,45.27,0,0,1,7.83-3.72c.39-.14.78-.35,1,.2s.35.94-.38,1.18c-1,.35-1.9.76-2.81,1.16A29.62,29.62,0,0,0,293.93,112.73Z"/><path class="cls-3" d="M185.62,207.66a5,5,0,0,0,.65-2.2c.25-3.46,1.88-6.23,4.12-8.8a28.81,28.81,0,0,0,4.47-7.06,7.67,7.67,0,0,0,.53-5.62,21.24,21.24,0,0,1-.48-2.24,2.92,2.92,0,0,1,.12-1.65c.18-.53.32-1.3.87-1.3s1,.73,1.12,1.42q1,5.31,2.08,10.61a49.87,49.87,0,0,1,.69,6.82c.21,4.46-1.61,8-4.56,11.07-.73.78-1.51,1.51-2.28,2.26s-.79.78,0,1.53a32.07,32.07,0,0,0,2.63,2.32,97.52,97.52,0,0,0,12.4,8.31,1.93,1.93,0,0,1,1.24,1.89.87.87,0,0,1-.8.94,3.49,3.49,0,0,1-2.34-.39,92.92,92.92,0,0,1-8.83-5.7q-4.28-3.06-8.45-6.27a2.13,2.13,0,0,0-2.2-.43,25.38,25.38,0,0,1-7.9,1.51,8.7,8.7,0,0,1-7.41-3.48,11.19,11.19,0,0,0-4.07-3.14c-1.91-.93-3.87-1.79-5.78-2.73a12.87,12.87,0,0,1-4.07-2.91,7.7,7.7,0,0,1-1.18-1.77c-.29-.55-.05-.85.59-.87a3.29,3.29,0,0,1,1.58.49l4.91,2.46a17.9,17.9,0,0,0,2.69,1.06,8.5,8.5,0,0,0,5.8-.06,50.19,50.19,0,0,1,4.82-1.41,7.85,7.85,0,0,1,3.34-.1,5.14,5.14,0,0,1,3.65,2.73A5.71,5.71,0,0,0,185.62,207.66Z"/><path class="cls-3" d="M318.78,207.63a1.49,1.49,0,0,0,1.12-.83,16.06,16.06,0,0,0,1-1.55c1.61-2.95,3.89-3.44,6.84-2.91a26.61,26.61,0,0,1,5,1.41,9.18,9.18,0,0,0,6.82-.21c2.24-.83,4.31-2,6.45-3.09a4.59,4.59,0,0,1,1.71-.63c.76,0,1,.36.67,1a8.69,8.69,0,0,1-2.72,3,24.07,24.07,0,0,1-4.4,2.4c-1.55.65-3.06,1.41-4.52,2.18a9.58,9.58,0,0,0-3.32,2.65c-2.36,3.17-5.64,3.93-9.34,3.5a28.38,28.38,0,0,1-6.07-1.43,2.08,2.08,0,0,0-2.2.43c-3.89,3-7.84,6-11.95,8.69-1.75,1.14-3.5,2.28-5.31,3.28a2.6,2.6,0,0,1-1.73.45c-.55-.08-1.14,0-1.41-.67a1.8,1.8,0,0,1,.71-1.88c.49-.34,1-.63,1.57-.93A97,97,0,0,0,310.07,214c.67-.55,1.26-1.18,1.89-1.77.39-.35.37-.66,0-1-.85-.8-1.71-1.61-2.5-2.47-2.1-2.26-4-4.68-4.42-7.85a27.34,27.34,0,0,1,0-7.45c.53-3.77,1.39-7.5,2.14-11.22.08-.45.14-.9.22-1.35a8.28,8.28,0,0,1,.13-.89c.18-.53.47-1.18,1-1.2s.77.69.93,1.2a5.39,5.39,0,0,1-.16,3.3c-1,3-.18,5.57,1.26,8.14a43.82,43.82,0,0,0,5,7.06,10.64,10.64,0,0,1,2.42,5.81C318.23,205.42,318.54,206.47,318.78,207.63Z"/><path class="cls-3" d="M195.41,65.66a30.85,30.85,0,0,1,3.12.24,7.43,7.43,0,0,0,4.84-.91A40.93,40.93,0,0,0,209,60.81a13.34,13.34,0,0,1,5.93-3c.43-.08.91-.26,1.26.2s.12,1-.1,1.43a3.21,3.21,0,0,1-1.43,1.32,33,33,0,0,0-7.49,5.7c-2.65,2.73-4.56,5.85-4.8,9.77a2.07,2.07,0,0,1-.27,1c-1.67,2.57-3.64,4.77-6.92,5.13-1.81.21-3.64.27-5.48.35a14.42,14.42,0,0,0-2.42.3c-.39.09-.71,0-.75-.46-.37-3.53-1-7.07,0-10.59a9.65,9.65,0,0,1,5.9-6.15A7.91,7.91,0,0,1,195.41,65.66Z"/><path class="cls-3" d="M318.64,76c-.18,2.16-.39,4.27-.55,6.39,0,.61-.3.8-.87.69a71,71,0,0,0-7.27-.57,6.13,6.13,0,0,1-4.28-1.67c-.53-.54-1.18-.95-1.73-1.48a4.83,4.83,0,0,1-1.69-3,15.66,15.66,0,0,0-5.11-10.1,33.53,33.53,0,0,0-7.43-5.54,2.65,2.65,0,0,1-1.34-1.38,1.22,1.22,0,0,1,.06-1.31c.31-.38.75-.22,1.14-.16a13.88,13.88,0,0,1,6.09,3c1.4,1.1,2.79,2.22,4.21,3.28a8.62,8.62,0,0,0,7.05,1.65,17.74,17.74,0,0,1,4.25-.1,4.36,4.36,0,0,1,2,.63c2.87,1.67,4.84,4,5.23,7.41C318.48,74.49,318.56,75.25,318.64,76Z"/><path class="cls-3" d="M331.57,184.39a63.62,63.62,0,0,1,2.5-7.66,11.48,11.48,0,0,1,5.17-5.23,28.64,28.64,0,0,1,9.65-3.14,11.74,11.74,0,0,0,9.45-7c.81-1.69,1.65-3.38,2.48-5.05a4.37,4.37,0,0,1,.49-.77c.55-.59,1.16-.43,1.3.36a5.56,5.56,0,0,1-.2,3,24.94,24.94,0,0,1-3,6.13c-2.22,3-4,6.39-6,9.54-1,1.63-2.28,3.12-3.42,4.67-1.63,2.17-4,3-6.47,3.7a29.8,29.8,0,0,1-7.8,1.22A24.78,24.78,0,0,1,331.57,184.39Z"/><path class="cls-3" d="M171.78,184.43a49,49,0,0,1-11.71-1.73,12,12,0,0,1-6.21-4.36c-2-2.69-3.78-5.52-5.53-8.39-1.18-1.95-2.43-3.87-3.73-5.76a19.86,19.86,0,0,1-2.81-6.86,2.56,2.56,0,0,1,.21-1.65.68.68,0,0,1,1.2-.26,2.7,2.7,0,0,1,.65,1c.89,1.82,1.77,3.67,2.71,5.46,1.75,3.4,4.35,5.68,8.24,6.29a40.14,40.14,0,0,1,5.76,1.34c3,1,5.82,2.14,8,4.46a9.7,9.7,0,0,1,2.32,3.71c.61,1.83,1.18,3.66,1.73,5.52C173,184.39,172.92,184.49,171.78,184.43Z"/><path class="cls-3" d="M161.86,98.56c.33-1.63.59-3.34,1-5q2.38-10,4.83-20a9.42,9.42,0,0,1,2.36-4,2.08,2.08,0,0,1,.87-.59,1,1,0,0,1,1.14.1c.33.28.21.67.13,1a11.91,11.91,0,0,1-.92,2.26,28.92,28.92,0,0,0-2.61,6.14,12.32,12.32,0,0,0,.55,8,19.56,19.56,0,0,0,3.49,5.7c2.28,2.53,2.6,5.38,1.87,8.51a27.93,27.93,0,0,1-1.9,5.13c-.52,1.17-.93,2.37-1.42,3.53s-1.26,1.3-2.12.46a5.66,5.66,0,0,1-.91-1.2,20.28,20.28,0,0,0-3.18-4.07,9.58,9.58,0,0,1-3-5A9.63,9.63,0,0,0,161.86,98.56Z"/><path class="cls-3" d="M329.66,97.93a8.67,8.67,0,0,1,2-5.46,19.45,19.45,0,0,0,4.52-8.55,11.53,11.53,0,0,0-.26-5.56,26.42,26.42,0,0,0-2.57-6,10.45,10.45,0,0,1-1-2.41c-.2-.81.21-1.26,1-1.1a2,2,0,0,1,1.16.7,9.73,9.73,0,0,1,2.4,4.19c1.71,7.57,3.83,15.07,5.4,22.68a7.45,7.45,0,0,1-1.47,6.55,21,21,0,0,1-1.81,2.06,15,15,0,0,0-2.5,3.26,5.59,5.59,0,0,1-1.29,1.69c-.73.61-1.54.49-1.85-.39-1-2.89-2.6-5.52-3.32-8.51A13.47,13.47,0,0,1,329.66,97.93Z"/><path class="cls-3" d="M338,154.2a14.44,14.44,0,0,1,.9-4.1A31.88,31.88,0,0,0,340.3,145a7,7,0,0,1,3.91-5.07,56,56,0,0,0,19.69-16.47,3.31,3.31,0,0,1,.45-.61.94.94,0,0,1,1.11-.2c.41.24.17.63,0,.94-1.41,2.85-2.45,5.88-4.48,8.44a34.94,34.94,0,0,0-6,12.42,7.17,7.17,0,0,1-5,5.13,30.88,30.88,0,0,1-4.27,1A11.77,11.77,0,0,0,340,153.3,3.29,3.29,0,0,1,338,154.2Z"/><path class="cls-3" d="M166.38,154.09a2.54,2.54,0,0,1-1.73-.77,11.52,11.52,0,0,0-5.86-2.71,30.46,30.46,0,0,1-4.56-1.16,7.08,7.08,0,0,1-4.66-5,37.21,37.21,0,0,0-6.76-13.53,8.83,8.83,0,0,1-1.2-1.94c-.88-1.89-1.77-3.76-2.65-5.66-.1-.22-.26-.47,0-.69s.47-.12.71-.1c.47,0,.7.36.94.71a56.7,56.7,0,0,0,20.42,17,5.4,5.4,0,0,1,2.83,3.22,12.24,12.24,0,0,1,.59,2.19c.37,2.37,1.49,4.52,1.87,6.89A3,3,0,0,1,166.38,154.09Z"/><path class="cls-3" d="M318.68,175.55a21.34,21.34,0,0,0-2-9.2c-1.12-2.61-2.37-5.17-3.57-7.76a21.34,21.34,0,0,1-1.32-3.4c-.28-1.06.41-1.79,1.34-1.54.47.12.59.5.78.87a30.72,30.72,0,0,0,1.65,2.91c2.24,3.36,5.29,5.89,8.36,8.39,1.1.9,2.24,1.77,3.4,2.56a5.44,5.44,0,0,1,1.94,2.49,14.35,14.35,0,0,1,.59,9.26,23.68,23.68,0,0,1-2.34,5.62c-.61,1.08-.76,1.12-1.75.53A15.1,15.1,0,0,1,320,180.7C319.07,179.05,318.23,177.36,318.68,175.55Z"/><path class="cls-3" d="M174.32,176.24a11.07,11.07,0,0,1,.51-3.82A7.81,7.81,0,0,1,178,167.9a58.41,58.41,0,0,0,8.06-6.74,24.71,24.71,0,0,0,4.56-6.25l.35-.67a1.06,1.06,0,0,1,1.42-.53c.53.14.57.69.59,1.12a2.74,2.74,0,0,1-.28,1c-1,3-2.53,5.77-3.83,8.64a32.61,32.61,0,0,0-2.67,7.75,11.39,11.39,0,0,0-.18,3.18,7.85,7.85,0,0,1-1.1,4.82,15.33,15.33,0,0,1-6.31,6.23c-.57.31-.94.25-1.24-.32C175.67,183,174.2,179.93,174.32,176.24Z"/><path class="cls-3" d="M355,106.21a76.23,76.23,0,0,1-.79,9.55,57.27,57.27,0,0,0-.41,7.31,13,13,0,0,1-4.93,10.52,23,23,0,0,1-6.51,3.89,1.7,1.7,0,0,1-2.57-1.55,16.64,16.64,0,0,1,4.81-14.06,44.68,44.68,0,0,1,3.34-3.12,10.93,10.93,0,0,0,3.76-7.08c.51-3.08.21-6.19.55-9.29a6.93,6.93,0,0,0,0-.91,1.11,1.11,0,0,1,1.1-1.22,1.16,1.16,0,0,1,1.35,1A9.2,9.2,0,0,1,355,103C355,104.07,355,105.13,355,106.21Z"/><path class="cls-3" d="M164.86,133.63c0,.72,0,1.43,0,2.14-.1,1.67-1.2,2.36-2.71,1.67a23.35,23.35,0,0,1-7.7-5.11,12.38,12.38,0,0,1-3.62-8.79,106.7,106.7,0,0,0-1-12.75,46.71,46.71,0,0,1-.1-8.69,3.1,3.1,0,0,1,.33-1.16,1.24,1.24,0,0,1,2.34.39c0,.24,0,.5,0,.75.1,2.34.22,4.66.28,7a16.81,16.81,0,0,0,1.39,6.35,8.87,8.87,0,0,0,2.64,3.3,31.66,31.66,0,0,1,4.52,4.52A14.54,14.54,0,0,1,164.86,133.63Z"/><path class="cls-3" d="M356.08,182.21a1.72,1.72,0,0,1-.08,1.44,13.19,13.19,0,0,1-4,5.81,3,3,0,0,1-.94.48c-3.54,1.16-6.47,3.34-9.34,5.6a55.11,55.11,0,0,1-6.56,4.44,9.54,9.54,0,0,1-6.29,1.28,21.46,21.46,0,0,0-2.28-.2c-.65,0-.85-.31-.92-.92a12.16,12.16,0,0,1,1.49-6.74,16.42,16.42,0,0,1,2.61-3.74,7.29,7.29,0,0,1,5.11-2.38,15.42,15.42,0,0,1,5.41.57c3.34,1,6.37.24,9.35-1.43,1.91-1.08,3.62-2.4,5.41-3.66C355.35,182.51,355.59,182.11,356.08,182.21Z"/><path class="cls-3" d="M148.69,182.11c1,.75,2.08,1.52,3.16,2.28a21.91,21.91,0,0,0,7,3.58,9.2,9.2,0,0,0,4.66,0,20.12,20.12,0,0,1,6.17-.75,6.64,6.64,0,0,1,4.34,1.67c3,2.85,5,6.27,4.95,10.58,0,1.63-.15,1.55-1.51,1.59a27.89,27.89,0,0,0-2.89.22,7.36,7.36,0,0,1-4.26-.91,43.15,43.15,0,0,1-7.14-4.62,57.8,57.8,0,0,0-5.85-4.14c-1.14-.69-2.44-1-3.58-1.65a10.07,10.07,0,0,1-5.31-7.37.5.5,0,0,1,.08-.28S148.55,182.25,148.69,182.11Z"/><path class="cls-3" d="M192.52,136.42a3.83,3.83,0,0,1-.65,3.16,14.12,14.12,0,0,1-1.69,2.16,16.81,16.81,0,0,0-4.56,9.6c-.22,1.61-.55,3.2-.89,4.79a10.77,10.77,0,0,1-5.7,7.67,29.67,29.67,0,0,1-5.68,2.53c-.8.2-1.61.24-2.41.39-1.26.2-1.73-.19-1.67-1.47a16.65,16.65,0,0,1,2.14-8,19.9,19.9,0,0,1,1.37-2,6.72,6.72,0,0,1,2.64-2.22,18.05,18.05,0,0,0,6.54-5.35c2.07-2.56,4-5.27,6.17-7.76A11.93,11.93,0,0,1,192.52,136.42Z"/><path class="cls-3" d="M312.15,136.3a13.66,13.66,0,0,1,3.5,2.71,74.45,74.45,0,0,1,5.5,6.74,23.93,23.93,0,0,0,6,6,11.42,11.42,0,0,0,2.14,1.18,5.88,5.88,0,0,1,2.34,1.9,16,16,0,0,1,3.64,10.44c0,1.22-.34,1.51-1.56,1.38a19.84,19.84,0,0,1-10.92-5c-1.93-1.65-2.6-4.05-3.13-6.48-.43-2-.63-4-1.1-6a15.33,15.33,0,0,0-3.83-7.17,11.91,11.91,0,0,1-2.26-3.05A3.34,3.34,0,0,1,312.15,136.3Z"/><path class="cls-3" d="M167.14,123.66a7.93,7.93,0,0,1-3.95-2.1c-1.67-1.65-3.3-3.32-4.87-5.07a11,11,0,0,1-2.56-5.94,25.32,25.32,0,0,1-.17-6.09A33.68,33.68,0,0,0,155,96a24.74,24.74,0,0,1,1.23-13.64,5.51,5.51,0,0,1,.28-.69c.24-.41.33-1.12,1-1s.57.86.57,1.31a20.25,20.25,0,0,1-.35,2.87,48.56,48.56,0,0,0-.83,9.71,14.64,14.64,0,0,0,1.28,5.59,7.4,7.4,0,0,0,2.54,3.18c4.69,3.38,6.68,8.16,7.19,13.72a22.5,22.5,0,0,1,0,3.67A11.4,11.4,0,0,1,167.14,123.66Z"/><path class="cls-3" d="M169.6,154.15c-1.79-4-2.38-7.71-.22-11.54a8.37,8.37,0,0,1,2-2.08c2.4-2,5-3.6,7.55-5.43a26.05,26.05,0,0,0,6.42-6.45c.85-1.27,1.81-2.47,2.7-3.69a4.22,4.22,0,0,1,2.16-1.61c.45-.14,1-.24,1.22.25a1.18,1.18,0,0,1,.09,1.42c-.78,1.06-1.53,2.16-2.28,3.24-2.92,4.19-5.48,8.61-6.56,13.66a9.43,9.43,0,0,1-4.13,5.94c-1.53,1.08-3.12,2.1-4.73,3.08A22.59,22.59,0,0,0,169.6,154.15Z"/><path class="cls-3" d="M334.91,154.05c-2.75-2.75-6.27-4.13-9.16-6.45a15.56,15.56,0,0,1-2-1.85,5.39,5.39,0,0,1-1.36-2.34,42.41,42.41,0,0,0-7.13-15.4c-.63-.91-1.28-1.83-2-2.72a1.25,1.25,0,0,1-.1-1.67c.42-.55,1-.35,1.54-.15a4.27,4.27,0,0,1,2,1.63q2,2.79,4.07,5.5a21.62,21.62,0,0,0,4.33,4.05c2.49,1.94,5.26,3.5,7.68,5.52a10.52,10.52,0,0,1,2.73,2.83C337.09,146,336.82,150.82,334.91,154.05Z"/><path class="cls-3" d="M337.53,123.66a5.71,5.71,0,0,1-.77-2.67c-.51-5.64.69-10.81,4.4-15.23A8.73,8.73,0,0,1,343,104c3.18-2.07,4.34-5.25,4.62-8.83a40.94,40.94,0,0,0-.77-10c-.12-.75-.29-1.49-.39-2.24a3.1,3.1,0,0,1,.14-1.65c.11-.22.09-.53.41-.57s.53.21.69.47a16,16,0,0,1,1.43,3.69A28.82,28.82,0,0,1,349.38,97a30.83,30.83,0,0,0-.49,5.76c0,1.93.06,3.87,0,5.8a12.33,12.33,0,0,1-3.86,9.28c-1.27,1.19-2.37,2.53-3.59,3.73A8.92,8.92,0,0,1,337.53,123.66Z"/><path class="cls-3" d="M166.71,164.31c-.08.61.37,1.47-.12,2s-1.35,0-2-.06a28.78,28.78,0,0,1-6.78-.88,7.07,7.07,0,0,1-4.5-3.83,31.77,31.77,0,0,0-6.25-8.4,35.26,35.26,0,0,1-5.92-7.52,12.19,12.19,0,0,1-1.36-3.54c-.09-.34-.25-.69.18-.93a.85.85,0,0,1,1.12,0c.75.67,1.55,1.32,2.28,2,2.16,2.14,4.27,4.36,6.47,6.48a16.73,16.73,0,0,0,7.39,4.37,2.82,2.82,0,0,0,.88.21c3,0,4.84,1.83,6.49,4a32.58,32.58,0,0,1,1.73,2.87C166.89,162.07,166.65,163.17,166.71,164.31Z"/><path class="cls-3" d="M337.84,164.09c.22-4.34,2.71-7.17,6.15-9.39a3.76,3.76,0,0,1,1.77-.38,12.64,12.64,0,0,0,5.68-2,32.23,32.23,0,0,0,5.88-5.05c1.85-1.81,3.52-3.8,5.52-5.47.26-.23.55-.47.81-.68a.87.87,0,0,1,1.12.09c.35.24.12.55.06.81a17.79,17.79,0,0,1-4.29,7.8c-1.77,2.09-3.71,4.05-5.52,6.1a19.62,19.62,0,0,0-3.42,5,7.94,7.94,0,0,1-6.82,4.91c-2,.28-4.13.43-6.21.63-.53.06-.75-.16-.73-.69S337.84,164.64,337.84,164.09Z"/><path class="cls-3" d="M312.19,177.16a83.55,83.55,0,0,1,.36-9.85c.07-.41.11-.8.21-1.21s.24-.71.67-.71a1,1,0,0,1,1,.82,1.91,1.91,0,0,1,0,.89c-.78,3.2.1,6.13,1.46,9a47.1,47.1,0,0,0,5.76,8.41c.29.36.57.71.88,1.06a7.8,7.8,0,0,1,1.63,8,21,21,0,0,1-2.79,6.55,2.85,2.85,0,0,1-.92,1c-.79.43-1.44.26-1.67-.61-.87-3.3-2.68-6.15-4.46-9a14.24,14.24,0,0,1-2.23-9.85A28.74,28.74,0,0,0,312.19,177.16Z"/><path class="cls-3" d="M192.75,185.2c.16.79-.43,2.1-1,3.4-1.22,2.69-2.89,5.13-4.23,7.76a19.71,19.71,0,0,0-1.61,3.78c-.37,1.31-1.31,1.53-2.2.49a8.2,8.2,0,0,1-1.41-2.16,25.34,25.34,0,0,1-2.17-6.94,7.26,7.26,0,0,1,1.56-5.39,65.59,65.59,0,0,0,6.46-8.88,16.44,16.44,0,0,0,2.38-8.1,13.51,13.51,0,0,0-.39-2.4,1,1,0,0,1,.47-1.16c.55-.39,1-.29,1.16.34a6.2,6.2,0,0,1,.26,1.35c.13,1.83.37,3.64.37,5.47A120.29,120.29,0,0,0,192.75,185.2Z"/><path class="cls-3" d="M313.14,98.13a6.81,6.81,0,0,1-5.21-1.89,4.1,4.1,0,0,1-1.42-2.61c-.33-3.32-2.22-5.46-5.05-6.94-1.45-.76-2.87-1.51-4.3-2.3a8.58,8.58,0,0,1-4.05-4.58c-.12-.35-.42-.78,0-1.12a1.21,1.21,0,0,1,1.16-.12,2.37,2.37,0,0,1,1.35,1,14.81,14.81,0,0,0,6.14,4.6,21.76,21.76,0,0,0,9.29,2.1c.85,0,1.73,0,2.58,0a7,7,0,0,1,6.52,3.2c.51.69.93,1.44,1.38,2.17.8,1.31,1.61,2.59,2.38,3.91.41.67.29,1.06-.36,1.08-2.47,0-4.79.84-7.17,1.28A15.17,15.17,0,0,1,313.14,98.13Z"/><path class="cls-3" d="M192.38,86.2a22.29,22.29,0,0,0,14.27-4.36,8.66,8.66,0,0,0,2.06-2,3,3,0,0,1,1.65-1.28c1-.27,1.48.2,1.16,1.2a8.07,8.07,0,0,1-3.24,4.11,33.06,33.06,0,0,1-3.75,2,19.53,19.53,0,0,0-3.94,2.55,6.49,6.49,0,0,0-2.37,4.62c-.1,2.46-3,4.87-5.7,5a18,18,0,0,1-5.13-.41,32.35,32.35,0,0,0-6.27-1.14c-.71,0-.91-.39-.49-1,1.47-2.13,2.49-4.56,4.12-6.59a6.7,6.7,0,0,1,5.66-2.77C191.06,86.2,191.71,86.2,192.38,86.2Z"/><path class="cls-3" d="M327.52,94.59A78.58,78.58,0,0,1,321.61,86a14.34,14.34,0,0,1-1.28-4.52,1.91,1.91,0,0,1,.23-1.18c1.75-3.75,1.56-7.62.73-11.51-.61-2.87-1.41-5.72-2.1-8.57-.18-.73-.28-1.48-.43-2.24a.85.85,0,0,1,.55-1.1c.51-.16.72.23,1,.55a21.65,21.65,0,0,1,3,6.64c.78,2.63,1.41,5.31,2.45,7.86a12.41,12.41,0,0,0,2.95,4.76,6.25,6.25,0,0,1,1.93,4.62,24,24,0,0,1-1.79,10.57A12.84,12.84,0,0,1,327.52,94.59Z"/><path class="cls-3" d="M176.87,94.34c-2.22-4.66-3.48-9.48-2.61-14.72a4.22,4.22,0,0,1,1.33-2.5,14.49,14.49,0,0,0,3.35-5.4c1.14-2.82,1.84-5.82,2.75-8.71a20.36,20.36,0,0,1,2.59-5.5c.26-.38.51-.83,1.08-.61s.51.72.43,1.27c-.47,3.48-1.65,6.8-2.43,10.22A19.58,19.58,0,0,0,183.2,78a4.78,4.78,0,0,0,.33,1c1.05,1.82.65,3.63.06,5.46a15.57,15.57,0,0,1-2.24,4.15c-1.24,1.79-2.55,3.57-3.83,5.34C177.44,94.16,177.32,94.34,176.87,94.34Z"/><path class="cls-3" d="M338.19,136.4a6.23,6.23,0,0,1-.13,1.67c-.32,1.12-.59,1.24-1.75,1.08-4.46-.63-7.9-3-10.87-6.21a98.78,98.78,0,0,1-7.21-9.24,12.19,12.19,0,0,0-4.6-3.87A8.34,8.34,0,0,1,311,118a3.45,3.45,0,0,1-.82-1.77,1.2,1.2,0,0,1,.61-1.31,1.16,1.16,0,0,1,1.29.17,8.42,8.42,0,0,1,1.87,2c2.08,3.28,5.25,5,8.71,6.33,2.69,1,5.48,1.88,8.13,3a27.62,27.62,0,0,1,3.84,2.13c2.45,1.57,3.34,4,3.57,6.74C338.21,135.67,338.19,136,338.19,136.4Z"/><path class="cls-3" d="M166.4,136.08a10.13,10.13,0,0,1,.45-3.3,8.08,8.08,0,0,1,3.65-4.52,35.07,35.07,0,0,1,8-3.58,35.86,35.86,0,0,0,7.94-3.44,11.49,11.49,0,0,0,3.64-3.4,15.6,15.6,0,0,1,2.2-2.53,1.2,1.2,0,0,1,2,1.26,3.89,3.89,0,0,1-1,1.69,5.61,5.61,0,0,1-1.73,1.22,14.57,14.57,0,0,0-6.09,5.34,57.05,57.05,0,0,1-8.71,10.36,17.09,17.09,0,0,1-8.86,4.07c-.77.12-1.12-.28-1.36-.91A7.2,7.2,0,0,1,166.4,136.08Z"/><path class="cls-3" d="M171,124.31c-1.69,0-1.88-.14-1.8-1.55a9.81,9.81,0,0,1,.57-2.52c.49-1.35,1-2.69,1.51-4a5.25,5.25,0,0,1,2.3-2.36,11.13,11.13,0,0,1,4.76-1.47l6.05-.61a10.56,10.56,0,0,0,5.42-2.24l6.39-4.95c1.06-.81,1.83-.89,2.3-.34s.06,1.24-.84,2.07a19.85,19.85,0,0,1-3,2.28,45.21,45.21,0,0,0-11.7,10.57,11.49,11.49,0,0,1-5.83,3.93A31.33,31.33,0,0,1,171,124.31Z"/><path class="cls-3" d="M333.56,124.31c-3-.37-6.29-.77-9.22-2.52a7.4,7.4,0,0,1-2-1.78,48.36,48.36,0,0,0-12.81-11.6,16.47,16.47,0,0,1-2.85-2.26c-.75-.73-1-1.4-.59-1.83s1.16-.45,2,.2c1.89,1.45,3.84,2.83,5.66,4.38a14.29,14.29,0,0,0,8.67,3.24,46.71,46.71,0,0,1,5.43.59,10,10,0,0,1,3.75,1.6,4,4,0,0,1,1.53,1.67,27,27,0,0,1,2.15,6.48s0,.1,0,.14C335.5,124.09,335.25,124.35,333.56,124.31Z"/><path class="cls-3" d="M202,94.32a1.74,1.74,0,0,1-.47,1.69,15.53,15.53,0,0,1-4,3.93,78.75,78.75,0,0,0-8.1,5.66,10.82,10.82,0,0,0-1.59,1.43c-1.67,2.07-3.93,2.89-6.43,3.42a37.91,37.91,0,0,1-6.8.57c-.59,0-1-.13-.86-.86.68-2.61,1.16-5.25,2.61-7.59,1.61-2.57,3.32-3.3,6.45-2.81,2.1.32,4.18.77,6.31.89A9.64,9.64,0,0,0,196.37,98a27.44,27.44,0,0,1,3.69-2.93A3.46,3.46,0,0,1,202,94.32Z"/><path class="cls-3" d="M302.58,94.26c1.95.45,3.26,1.77,4.66,2.89.71.57,1.39,1.18,2.12,1.75,2.58,2,5.58,2,8.59,1.51a42.72,42.72,0,0,1,5.86-.77,4.07,4.07,0,0,1,3,1.22,11.11,11.11,0,0,1,2.85,5c.4,1.37.79,2.73,1.14,4.12.22.85.08,1-.74,1.06a27.53,27.53,0,0,1-9.61-1.29,5.31,5.31,0,0,1-2.26-1.22c-3.11-3.36-6.9-5.8-10.7-8.22a15.71,15.71,0,0,1-4.4-4.16A2.11,2.11,0,0,1,302.58,94.26Z"/><path class="cls-3" d="M187.7,451.69l-.43-.19c-1.42-.55-2.83-1.14-4.27-1.63a3.13,3.13,0,0,1-2-1.93,14.35,14.35,0,0,1-1.12-5.19q0-19.15,0-38.31a5.75,5.75,0,0,1,4.05-5.83c1-.38,2-.73,3-1.14.52-.22,1.46-.18,1.34-.93s-1-.43-1.59-.43c-7.43,0-14.84,0-22.27,0-.37,0-.71,0-1.06,0s-.73.12-.79.55.24.65.57.81a7,7,0,0,0,1,.39c1.63.59,3.22,1.26,4.87,1.77a3.67,3.67,0,0,1,2.54,2.79,8.18,8.18,0,0,1,.33,2.26v14.49c0,1.39,0,1.41-1.47,1.41H142.32c-1.42,0-1.44,0-1.44-1.43,0-4.43,0-8.85,0-13.27a17.74,17.74,0,0,1,.22-2.73,4.22,4.22,0,0,1,2.89-3.74c1.53-.53,3-1.27,4.48-1.92.35-.16.87-.24.77-.79s-.61-.61-1.08-.61H125.44a6.05,6.05,0,0,0-1,.06.74.74,0,0,0-.62.59.72.72,0,0,0,.43.88l1,.4c1.75.69,3.48,1.41,5.25,2.06a3,3,0,0,1,2.18,3.22c-.1,4.21,0,8.44,0,12.66,0,10.28,0,20.56,0,30.84,0,1.22-.24,1.91-1.51,2.38-2,.71-3.93,1.67-5.88,2.55-.53.24-1.08.55-1,1.2s.82.61,1.35.63h22.72c.3,0,.61,0,.91,0a.72.72,0,0,0,.73-.63.9.9,0,0,0-.32-1,6.18,6.18,0,0,0-1-.43c-1.63-.57-3.26-1.16-4.88-1.71A3.78,3.78,0,0,1,141,446.5c-.08-.55-.12-1.12-.15-1.67v-16a6.59,6.59,0,0,0,0-.77c0-.73.35-1,1-1,.31,0,.61,0,.92,0h27.6c1.37,0,1.41,0,1.41,1.35,0,4.78.06,9.57,0,14.35a12.91,12.91,0,0,1-1,5.52,3,3,0,0,1-1.83,1.67c-1.35.42-2.67,1-4,1.42a2.82,2.82,0,0,0-1.49,1,.68.68,0,0,0,.45,1.14,6.27,6.27,0,0,0,1.06,0h22.43c.63,0,1.49.18,1.59-.75S188.23,452,187.7,451.69Zm-21,.85c.29-.36.71-.39,1.06-.53,2.2-.77,4.4-1.59,6.62-2.3a1.42,1.42,0,0,0,1.16-1.63c0-4,0-7.94,0-11.91V424.51c-.47-.37-.78-.06-1.08.06a17.48,17.48,0,0,1-5.68.94c-8.9,0-17.8,0-26.69,0H141c-1.14,0-1.18,0-1.18,1.2v19.85a9.24,9.24,0,0,0,.06,1,2.92,2.92,0,0,0,2.2,2.75,30.58,30.58,0,0,1,5.31,2.24H127.7l-.06-.16,3.1-1.06c1.63-.55,3.25-1.14,4.9-1.67a1,1,0,0,0,.88-1.2,7.06,7.06,0,0,1,0-.92V401.93c0-.26,0-.51,0-.77.1-.8-.27-1.18-1-1.41-2.34-.67-4.66-1.38-7-2.09l-1.41-.45.06-.14H146l.06.2a24.85,24.85,0,0,1-2.87,1.24c-2.39.73-3.22,2.49-3.3,4.77-.06,1.77,0,3.56,0,5.35v12.21c0,1.35,0,1.35,1.32,1.45.45,0,.92,0,1.36,0h25.94a26.05,26.05,0,0,1,6.78.55c.41-.37.26-.79.26-1.18V401.52c0-1.36,0-1.36-1.3-1.77-2.28-.71-4.56-1.38-6.86-2.07a3.66,3.66,0,0,1-1.24-.57h18.61c-.8.34-1.33.59-1.86.81a6.23,6.23,0,0,0-4.21,6.25c0,12.87,0,25.75,0,38.62a11.07,11.07,0,0,0,1.2,5.46,4.68,4.68,0,0,0,2.36,2.26c1.35.57,2.67,1.22,4.05,1.87C185.13,452.7,170,452.83,166.73,452.54Z"/><path class="cls-4" d="M348,439.41c-.23-.55-.67-.63-1-.14a4.31,4.31,0,0,0-.39.81c-.63,1.39-1.26,2.77-1.87,4.18a4,4,0,0,1-1.85,1.95,16.23,16.23,0,0,1-2.24,1,24.58,24.58,0,0,1-8.72,1.08,24.33,24.33,0,0,1-4.54-.53,4.11,4.11,0,0,1-3.17-3.34,10.63,10.63,0,0,1-.33-2.26c0-4.72,0-9.47,0-14.19,0-1.18,0-1.22,1.16-1.22,3.51,0,7,0,10.53,0a3.62,3.62,0,0,1,2.71,1.18,7.67,7.67,0,0,1,1.44,2.14c.53,1.09,1,2.23,1.55,3.31.3.57.32,1.69,1.2,1.49s.37-1.14.39-1.77q0-7.57,0-15.11v-1.63A7,7,0,0,0,340,418.4a7.66,7.66,0,0,1-5.72,2.46c-3.06.07-6.11.05-9.14,0-1.25,0-1.27,0-1.27-1.26V406.35c0-1.39,0-2.75,0-4.13,0-.63.21-.92.88-.92,4.52,0,9,0,13.58.08a4,4,0,0,1,3.95,2.59c.67,1.59,1.34,3.17,2,4.76.13.29.23.57.35.84s.32.55.67.5.49-.34.63-.61a2.46,2.46,0,0,0,.16-1.34c0-3.81,0-7.63,0-11.44,0-1.91.27-2-1.93-1.71a78.36,78.36,0,0,1-11.56.51H309a13,13,0,0,0-1.53.06.82.82,0,0,0-.77.63c-.1.43.23.65.55.81a15.88,15.88,0,0,0,1.69.72c1,.34,1.93.61,2.89.95,2.81,1,4.13,2.69,4.13,5.83q-.12,20.37,0,40.75a4,4,0,0,1-2.4,4c-1.57.86-3.25,1.45-4.86,2.2a14.62,14.62,0,0,0-1.73,1c-.49.32-.31.69.1,1a2.68,2.68,0,0,0,1.48.18c11.65,0,23.29,0,34.94,0a4.19,4.19,0,0,0,4.23-2.81,5.59,5.59,0,0,0,.47-2.38c0-2.55,0-5.09,0-7.64A3.4,3.4,0,0,0,348,439.41ZM347,449.89a3.23,3.23,0,0,1-3.2,2.73c-2.38,0-4.78,0-7.16,0H311.31c.25-.49.67-.51,1-.63,2.12-.71,4.24-1.38,6.37-2.09,1.12-.37,1.14-.39,1.14-1.61V401.44c0-1.26,0-1.28-1.26-1.67-2.32-.71-4.66-1.4-7-2.11a3.32,3.32,0,0,1-1.41-.68h1.9c7.53,0,15,0,22.57,0a25.44,25.44,0,0,0,6.95-.77,5,5,0,0,1,2-.1,1.42,1.42,0,0,1,1.42,1.63c0,2.58,0,5.19,0,7.77l-.28.07c-.67-2.2-1.36-4.42-2.12-6.82-2.16,1.58-4.56,1.34-6.94,1.34H324.2c-1.45,0-1.47,0-1.47,1.42q0,9.54,0,19.08c0,1.38,0,1.4,1.49,1.4,3.81,0,7.63,0,11.44,0a6.25,6.25,0,0,1,4.11,1.23c.84-1.47,1.12-3.12,2-4.5v12.52a7.71,7.71,0,0,1-.82-2.63c-.3-1.12-.57-2.26-.83-3.4-.12-.53-.33-.87-.94-.59-2,.92-4.07.71-6.14.71h-9.15c-1.16,0-1.18,0-1.18,1.2,0,5.13,0,10.29,0,15.42a22.25,22.25,0,0,0,.55,4.84,3.36,3.36,0,0,0,2.89,2.73,33,33,0,0,0,4.85.51,75.91,75.91,0,0,0,10.34-.27,4.63,4.63,0,0,0,1.2-.2c.82-.31,1.45-.24,1.88.94.87-2.59,1.62-4.87,2.4-7.15A28,28,0,0,1,347,449.89Z"/><path class="cls-4" d="M303.47,395.42a4.05,4.05,0,0,0,0-.92c-.14-.67-.44-.83-1.07-.57-.33.14-.66.31-1,.47a11.16,11.16,0,0,1-4,1.42,41.59,41.59,0,0,1-4.87.27c-7.88,0-15.75,0-23.63,0a21.63,21.63,0,0,1-9.06-1.61c-1-.43-1.24-.2-1.28.9v15.57a4.51,4.51,0,0,0,.08,1.22.87.87,0,0,0,.75.67c.37,0,.47-.32.61-.59s.24-.57.35-.83c.93-2.36,1.95-4.7,2.81-7.09a3.83,3.83,0,0,1,3.86-2.62c3-.08,6,0,9,0,1.14,0,1.16,0,1.16,1.22,0,3.5,0,7,0,10.52,0,9.92,0,19.83,0,29.77a12.05,12.05,0,0,1-1.12,4.86,2.87,2.87,0,0,1-1.71,1.63c-1.85.71-3.68,1.47-5.49,2.24-.57.24-1.51.31-1.33,1.18s1,.47,1.59.47q11.91,0,23.78,0c.37,0,.71,0,1.06,0a.59.59,0,0,0,.55-.45.65.65,0,0,0-.31-.79,8.46,8.46,0,0,0-1.1-.51c-1.67-.63-3.3-1.32-5-1.87a3.57,3.57,0,0,1-2.46-2.83,10.89,10.89,0,0,1-.28-2c-.06-2.69-.17-5.39-.19-8.08,0-4.21,0-8.45,0-12.66V404.56a15.35,15.35,0,0,1,.06-1.67c.13-1.16.13-1.18,1.27-1.18q3.19,0,6.41,0a6.69,6.69,0,0,1,6.58,4.39l.28.72c.77,1.83,1.55,3.64,2.34,5.45.14.33.33.68.77.61s.55-.5.57-.93V395.42Zm-1,12.66-.19,0c-.71-3-1.4-6.05-2.19-9.36a5.68,5.68,0,0,1-4.42,1.69c-3.26,0-6.52,0-9.77,0-1.9,0-1.78-.09-1.78,1.71v42.59a7.77,7.77,0,0,0,.41,2.7c.59,1.65,1.43,3,3.34,3.42a27.34,27.34,0,0,1,3.32,1.22c-1.22.29-18.43.35-20.36.05,3.08-.9,5.93-1.74,8.8-2.55,1.42-.41,1.44-.41,1.44-1.95V400.51a3.28,3.28,0,0,0-.1-1.41c-.22-.16-.39-.1-.47,0a5.13,5.13,0,0,1-4.29,1.41c-2.9-.11-5.81,0-8.7,0-2.4,0-4.19.89-5.09,3.31a33.14,33.14,0,0,1-2.32,4.81V395.38c2.81,1.6,5.85,1.73,8.88,1.73,8,0,16,0,23.94,0a27.88,27.88,0,0,0,5.9-.61,13.4,13.4,0,0,0,3.61-1.49v13.07Z"/><path class="cls-4" d="M393.68,440.43a6.28,6.28,0,0,0-.06-1.06c-.06-.29-.14-.63-.51-.69a.8.8,0,0,0-.77.4,5.09,5.09,0,0,0-.55.92c-.92,1.65-1.83,3.28-2.73,4.95a3.33,3.33,0,0,1-1.47,1.5,9.5,9.5,0,0,1-4.35,1.27c-3.06,0-6.11,0-9.16,0a2.39,2.39,0,0,1-2.45-1.67,10.89,10.89,0,0,1-.53-1.9,28.47,28.47,0,0,1-.3-4.7c0-11.7,0-23.41,0-35.12a5,5,0,0,1,2.79-4.68,19.74,19.74,0,0,1,3.38-1.36c1-.35,2-.71,3-1.08.26-.1.63-.25.51-.63s-.41-.43-.71-.45l-.45,0H354.88c-.43,0-1-.14-1.14.47s.34.89.79,1.16a4.48,4.48,0,0,0,.72.28,38.87,38.87,0,0,0,4.11,1.61,4,4,0,0,1,2.91,3.36,24.83,24.83,0,0,1,.65,5.88c0,11,0,22.09,0,33.13,0,.61,0,1.22,0,1.83-.29,3.22-1.59,5.74-4.74,7a21.68,21.68,0,0,0-2.32,1.14c-.49.29-1.43.39-1.29,1.06s1,.45,1.61.45c5.7,0,11.38,0,17.08,0s11.4-.06,17.08,0a3.05,3.05,0,0,0,3.34-3.38C393.6,446.94,393.68,443.69,393.68,440.43Zm-1.2,9.3c-.06,1.92-.86,2.63-2.77,2.63h-30a1.67,1.67,0,0,1-1.12-.21c2.26-.69,4.42-1.36,6.58-2,1.53-.49,1.53-.51,1.53-2.12V401.26c0-1.47,0-1.47-1.39-1.85l-6.61-1.79c-.29-.09-.6-.09-.64-.49H376.5c-.41.57-1,.55-1.39.69a11.1,11.1,0,0,0-3.27,1.57,4.37,4.37,0,0,0-2,3.74q0,18.63,0,37.24a26.48,26.48,0,0,0,.63,5.6,9.65,9.65,0,0,0,.35,1.16,2.35,2.35,0,0,0,2.63,1.81c3.7,0,7.43.06,11.13,0a6,6,0,0,1,4,1.1c.27.2.61.34,1,.59.88-3,1.73-5.87,2.59-8.76a.72.72,0,0,0,.22,0C392.5,444.56,392.56,447.15,392.48,449.73Z"/><path class="cls-3" d="M251.3,420.84c-1.31-9.56-6.68-16.18-15.31-20.15a25.71,25.71,0,0,0-16.72-1.47c-8.81,2-14.92,7.29-18.26,15.72a25.72,25.72,0,0,0-1.34,10.81,24.39,24.39,0,0,0,2.38,9.85c4.81,9.61,12.52,14.66,23.33,14.7,1.65-.1,3.26-.12,4.89-.36a24.09,24.09,0,0,0,16.1-9.53A25.64,25.64,0,0,0,251.3,420.84ZM243,440.33A20.59,20.59,0,0,1,228.17,449c-10.83,1.2-18.83-3.24-24.35-12.4a27.81,27.81,0,0,1-1.77-21.25c3-8,8.71-13.13,17.24-14.66,6.93-1.22,13.38,0,18.9,4.64a25.67,25.67,0,0,1,8.53,13.74,26.05,26.05,0,0,1,.69,6.7A23,23,0,0,1,243,440.33Zm8.35-19.49c-1.31-9.56-6.68-16.18-15.31-20.15a25.71,25.71,0,0,0-16.72-1.47c-8.81,2-14.92,7.29-18.26,15.72a25.72,25.72,0,0,0-1.34,10.81,24.39,24.39,0,0,0,2.38,9.85c4.81,9.61,12.52,14.66,23.33,14.7,1.65-.1,3.26-.12,4.89-.36a24.09,24.09,0,0,0,16.1-9.53A25.64,25.64,0,0,0,251.3,420.84ZM243,440.33A20.59,20.59,0,0,1,228.17,449c-10.83,1.2-18.83-3.24-24.35-12.4a27.81,27.81,0,0,1-1.77-21.25c3-8,8.71-13.13,17.24-14.66,6.93-1.22,13.38,0,18.9,4.64a25.67,25.67,0,0,1,8.53,13.74,26.05,26.05,0,0,1,.69,6.7A23,23,0,0,1,243,440.33Zm12.79-19.2c-.78-8.51-4.93-15.29-11.63-20.5a29.44,29.44,0,0,0-19.36-6.11,32.7,32.7,0,0,0-17,4.13A29.32,29.32,0,0,0,192.67,430c2,12.35,9.3,20.23,21.17,23.9a35.93,35.93,0,0,0,14.49.93,31,31,0,0,0,10.1-2.69C250.52,446.45,257,435,255.74,421.13Zm-2.35,12.5c-3.68,10.48-11,17-21.88,19.3a27.7,27.7,0,0,1-17.59-1.73c-8.86-4-14.74-10.71-16.9-20.32A28.14,28.14,0,0,1,198.9,412c4.31-8.86,11.27-14.48,21.15-16.19a35.82,35.82,0,0,1,4.78-.34,29.13,29.13,0,0,1,20.85,7.65,26.56,26.56,0,0,1,8.65,16.37A29.82,29.82,0,0,1,253.39,433.63ZM236,400.69a25.71,25.71,0,0,0-16.72-1.47c-8.81,2-14.92,7.29-18.26,15.72a25.72,25.72,0,0,0-1.34,10.81A24.39,24.39,0,0,0,202,435.6c4.81,9.61,12.52,14.66,23.33,14.7,1.65-.1,3.26-.12,4.89-.36a24.09,24.09,0,0,0,16.1-9.53,25.48,25.48,0,0,0,4.93-19.57C250,411.28,244.6,404.66,236,400.69Zm7,39.64A20.59,20.59,0,0,1,228.17,449c-10.83,1.2-18.83-3.24-24.35-12.4a27.81,27.81,0,0,1-1.77-21.25c3-8,8.71-13.13,17.24-14.66,6.93-1.22,13.38,0,18.9,4.64a25.67,25.67,0,0,1,8.53,13.74,26.05,26.05,0,0,1,.69,6.7A23,23,0,0,1,243,440.33Z"/><path class="cls-5" d="M251.3,420.84c-1.31-9.56-6.68-16.18-15.31-20.15a25.71,25.71,0,0,0-16.72-1.47c-8.81,2-14.92,7.29-18.26,15.72a25.72,25.72,0,0,0-1.34,10.81,24.39,24.39,0,0,0,2.38,9.85c4.81,9.61,12.52,14.66,23.33,14.7,1.65-.1,3.26-.12,4.89-.36a24.09,24.09,0,0,0,16.1-9.53A25.64,25.64,0,0,0,251.3,420.84ZM243,440.33A20.59,20.59,0,0,1,228.17,449c-10.83,1.2-18.83-3.24-24.35-12.4a27.81,27.81,0,0,1-1.77-21.25c3-8,8.71-13.13,17.24-14.66,6.93-1.22,13.38,0,18.9,4.64a25.67,25.67,0,0,1,8.53,13.74,26.05,26.05,0,0,1,.69,6.7A23,23,0,0,1,243,440.33Z"/><path class="cls-3" d="M251.3,420.84c-1.31-9.56-6.68-16.18-15.31-20.15a25.71,25.71,0,0,0-16.72-1.47c-8.81,2-14.92,7.29-18.26,15.72a25.72,25.72,0,0,0-1.34,10.81,24.39,24.39,0,0,0,2.38,9.85c4.81,9.61,12.52,14.66,23.33,14.7,1.65-.1,3.26-.12,4.89-.36a24.09,24.09,0,0,0,16.1-9.53A25.64,25.64,0,0,0,251.3,420.84ZM243,440.33A20.59,20.59,0,0,1,228.17,449c-10.83,1.2-18.83-3.24-24.35-12.4a27.81,27.81,0,0,1-1.77-21.25c3-8,8.71-13.13,17.24-14.66,6.93-1.22,13.38,0,18.9,4.64a25.67,25.67,0,0,1,8.53,13.74,26.05,26.05,0,0,1,.69,6.7A23,23,0,0,1,243,440.33Z"/><path class="cls-4" d="M178.94,309.67a10.56,10.56,0,0,0-6.61-9.63,20.08,20.08,0,0,0-9.85-1.53c-2.63.23-3.81.78-4.16,4.05a13,13,0,0,0-.06,1.53v8.39c0,2.54,0,5.09,0,7.63,0,1-.43,2.16.2,2.81s1.94.23,2.94.27a23.08,23.08,0,0,0,8.69-1.2,16.58,16.58,0,0,0,5-2.77A10.78,10.78,0,0,0,178.94,309.67Zm-4.09,3.54a9.65,9.65,0,0,1-6.17,7.39,27.12,27.12,0,0,1-8.34,1.55c-.78.06-.94-.33-.94-1,0-3.09,0-6.21,0-9.3V303.3a6.21,6.21,0,0,1,.2-1.81,2.06,2.06,0,0,1,1.86-1.57c4.11-.35,7.92.38,10.93,3.46a8.79,8.79,0,0,1,2.56,5.88A13.06,13.06,0,0,1,174.85,313.21Zm4.09-3.54a10.56,10.56,0,0,0-6.61-9.63,20.08,20.08,0,0,0-9.85-1.53c-2.63.23-3.81.78-4.16,4.05a13,13,0,0,0-.06,1.53v8.39c0,2.54,0,5.09,0,7.63,0,1-.43,2.16.2,2.81s1.94.23,2.94.27a23.08,23.08,0,0,0,8.69-1.2,16.58,16.58,0,0,0,5-2.77A10.78,10.78,0,0,0,178.94,309.67Zm-4.09,3.54a9.65,9.65,0,0,1-6.17,7.39,27.12,27.12,0,0,1-8.34,1.55c-.78.06-.94-.33-.94-1,0-3.09,0-6.21,0-9.3V303.3a6.21,6.21,0,0,1,.2-1.81,2.06,2.06,0,0,1,1.86-1.57c4.11-.35,7.92.38,10.93,3.46a8.79,8.79,0,0,1,2.56,5.88A13.06,13.06,0,0,1,174.85,313.21Zm4.09-3.54a10.56,10.56,0,0,0-6.61-9.63,20.08,20.08,0,0,0-9.85-1.53c-2.63.23-3.81.78-4.16,4.05a13,13,0,0,0-.06,1.53v8.39c0,2.54,0,5.09,0,7.63,0,1-.43,2.16.2,2.81s1.94.23,2.94.27a23.08,23.08,0,0,0,8.69-1.2,16.58,16.58,0,0,0,5-2.77A10.78,10.78,0,0,0,178.94,309.67Zm-4.09,3.54a9.65,9.65,0,0,1-6.17,7.39,27.12,27.12,0,0,1-8.34,1.55c-.78.06-.94-.33-.94-1,0-3.09,0-6.21,0-9.3V303.3a6.21,6.21,0,0,1,.2-1.81,2.06,2.06,0,0,1,1.86-1.57c4.11-.35,7.92.38,10.93,3.46a8.79,8.79,0,0,1,2.56,5.88A13.06,13.06,0,0,1,174.85,313.21Zm4.09-3.54a10.56,10.56,0,0,0-6.61-9.63,20.08,20.08,0,0,0-9.85-1.53c-2.63.23-3.81.78-4.16,4.05a13,13,0,0,0-.06,1.53v8.39c0,2.54,0,5.09,0,7.63,0,1-.43,2.16.2,2.81s1.94.23,2.94.27a23.08,23.08,0,0,0,8.69-1.2,16.58,16.58,0,0,0,5-2.77A10.78,10.78,0,0,0,178.94,309.67Zm-4.09,3.54a9.65,9.65,0,0,1-6.17,7.39,27.12,27.12,0,0,1-8.34,1.55c-.78.06-.94-.33-.94-1,0-3.09,0-6.21,0-9.3V303.3a6.21,6.21,0,0,1,.2-1.81,2.06,2.06,0,0,1,1.86-1.57c4.11-.35,7.92.38,10.93,3.46a8.79,8.79,0,0,1,2.56,5.88A13.06,13.06,0,0,1,174.85,313.21Zm4.09-3.54a10.56,10.56,0,0,0-6.61-9.63,20.08,20.08,0,0,0-9.85-1.53c-2.63.23-3.81.78-4.16,4.05a13,13,0,0,0-.06,1.53v8.39c0,2.54,0,5.09,0,7.63,0,1-.43,2.16.2,2.81s1.94.23,2.94.27a23.08,23.08,0,0,0,8.69-1.2,16.58,16.58,0,0,0,5-2.77A10.78,10.78,0,0,0,178.94,309.67Zm-4.09,3.54a9.65,9.65,0,0,1-6.17,7.39,27.12,27.12,0,0,1-8.34,1.55c-.78.06-.94-.33-.94-1,0-3.09,0-6.21,0-9.3V303.3a6.21,6.21,0,0,1,.2-1.81,2.06,2.06,0,0,1,1.86-1.57c4.11-.35,7.92.38,10.93,3.46a8.79,8.79,0,0,1,2.56,5.88A13.06,13.06,0,0,1,174.85,313.21Zm4.09-3.54a10.56,10.56,0,0,0-6.61-9.63,20.08,20.08,0,0,0-9.85-1.53c-2.63.23-3.81.78-4.16,4.05a13,13,0,0,0-.06,1.53v8.39c0,2.54,0,5.09,0,7.63,0,1-.43,2.16.2,2.81s1.94.23,2.94.27a23.08,23.08,0,0,0,8.69-1.2,16.58,16.58,0,0,0,5-2.77A10.78,10.78,0,0,0,178.94,309.67Zm-4.09,3.54a9.65,9.65,0,0,1-6.17,7.39,27.12,27.12,0,0,1-8.34,1.55c-.78.06-.94-.33-.94-1,0-3.09,0-6.21,0-9.3V303.3a6.21,6.21,0,0,1,.2-1.81,2.06,2.06,0,0,1,1.86-1.57c4.11-.35,7.92.38,10.93,3.46a8.79,8.79,0,0,1,2.56,5.88A13.06,13.06,0,0,1,174.85,313.21Zm4.09-3.54a10.56,10.56,0,0,0-6.61-9.63,20.08,20.08,0,0,0-9.85-1.53c-2.63.23-3.81.78-4.16,4.05a13,13,0,0,0-.06,1.53v8.39c0,2.54,0,5.09,0,7.63,0,1-.43,2.16.2,2.81s1.94.23,2.94.27a23.08,23.08,0,0,0,8.69-1.2,16.58,16.58,0,0,0,5-2.77A10.78,10.78,0,0,0,178.94,309.67Zm-4.09,3.54a9.65,9.65,0,0,1-6.17,7.39,27.12,27.12,0,0,1-8.34,1.55c-.78.06-.94-.33-.94-1,0-3.09,0-6.21,0-9.3V303.3a6.21,6.21,0,0,1,.2-1.81,2.06,2.06,0,0,1,1.86-1.57c4.11-.35,7.92.38,10.93,3.46a8.79,8.79,0,0,1,2.56,5.88A13.06,13.06,0,0,1,174.85,313.21Zm4.09-3.54a10.56,10.56,0,0,0-6.61-9.63,20.08,20.08,0,0,0-9.85-1.53c-2.63.23-3.81.78-4.16,4.05a13,13,0,0,0-.06,1.53v8.39c0,2.54,0,5.09,0,7.63,0,1-.43,2.16.2,2.81s1.94.23,2.94.27a23.08,23.08,0,0,0,8.69-1.2,16.58,16.58,0,0,0,5-2.77A10.78,10.78,0,0,0,178.94,309.67Zm-4.09,3.54a9.65,9.65,0,0,1-6.17,7.39,27.12,27.12,0,0,1-8.34,1.55c-.78.06-.94-.33-.94-1,0-3.09,0-6.21,0-9.3V303.3a6.21,6.21,0,0,1,.2-1.81,2.06,2.06,0,0,1,1.86-1.57c4.11-.35,7.92.38,10.93,3.46a8.79,8.79,0,0,1,2.56,5.88A13.06,13.06,0,0,1,174.85,313.21Zm4.09-3.54a10.56,10.56,0,0,0-6.61-9.63,20.08,20.08,0,0,0-9.85-1.53c-2.63.23-3.81.78-4.16,4.05a13,13,0,0,0-.06,1.53v8.39c0,2.54,0,5.09,0,7.63,0,1-.43,2.16.2,2.81s1.94.23,2.94.27a23.08,23.08,0,0,0,8.69-1.2,16.58,16.58,0,0,0,5-2.77A10.78,10.78,0,0,0,178.94,309.67Zm-4.09,3.54a9.65,9.65,0,0,1-6.17,7.39,27.12,27.12,0,0,1-8.34,1.55c-.78.06-.94-.33-.94-1,0-3.09,0-6.21,0-9.3V303.3a6.21,6.21,0,0,1,.2-1.81,2.06,2.06,0,0,1,1.86-1.57c4.11-.35,7.92.38,10.93,3.46a8.79,8.79,0,0,1,2.56,5.88A13.06,13.06,0,0,1,174.85,313.21Zm4.09-3.54a10.56,10.56,0,0,0-6.61-9.63,20.08,20.08,0,0,0-9.85-1.53c-2.63.23-3.81.78-4.16,4.05a13,13,0,0,0-.06,1.53v8.39c0,2.54,0,5.09,0,7.63,0,1-.43,2.16.2,2.81s1.94.23,2.94.27a23.08,23.08,0,0,0,8.69-1.2,16.58,16.58,0,0,0,5-2.77A10.78,10.78,0,0,0,178.94,309.67Zm-4.09,3.54a9.65,9.65,0,0,1-6.17,7.39,27.12,27.12,0,0,1-8.34,1.55c-.78.06-.94-.33-.94-1,0-3.09,0-6.21,0-9.3V303.3a6.21,6.21,0,0,1,.2-1.81,2.06,2.06,0,0,1,1.86-1.57c4.11-.35,7.92.38,10.93,3.46a8.79,8.79,0,0,1,2.56,5.88A13.06,13.06,0,0,1,174.85,313.21Zm4.09-3.54a10.56,10.56,0,0,0-6.61-9.63,20.08,20.08,0,0,0-9.85-1.53c-2.63.23-3.81.78-4.16,4.05a13,13,0,0,0-.06,1.53v8.39c0,2.54,0,5.09,0,7.63,0,1-.43,2.16.2,2.81s1.94.23,2.94.27a23.08,23.08,0,0,0,8.69-1.2,16.58,16.58,0,0,0,5-2.77A10.78,10.78,0,0,0,178.94,309.67Zm-4.09,3.54a9.65,9.65,0,0,1-6.17,7.39,27.12,27.12,0,0,1-8.34,1.55c-.78.06-.94-.33-.94-1,0-3.09,0-6.21,0-9.3V303.3a6.21,6.21,0,0,1,.2-1.81,2.06,2.06,0,0,1,1.86-1.57c4.11-.35,7.92.38,10.93,3.46a8.79,8.79,0,0,1,2.56,5.88A13.06,13.06,0,0,1,174.85,313.21Zm4.09-3.54a10.56,10.56,0,0,0-6.61-9.63,20.08,20.08,0,0,0-9.85-1.53c-2.63.23-3.81.78-4.16,4.05a13,13,0,0,0-.06,1.53v8.39c0,2.54,0,5.09,0,7.63,0,1-.43,2.16.2,2.81s1.94.23,2.94.27a23.08,23.08,0,0,0,8.69-1.2,16.58,16.58,0,0,0,5-2.77A10.78,10.78,0,0,0,178.94,309.67Zm-4.09,3.54a9.65,9.65,0,0,1-6.17,7.39,27.12,27.12,0,0,1-8.34,1.55c-.78.06-.94-.33-.94-1,0-3.09,0-6.21,0-9.3V303.3a6.21,6.21,0,0,1,.2-1.81,2.06,2.06,0,0,1,1.86-1.57c4.11-.35,7.92.38,10.93,3.46a8.79,8.79,0,0,1,2.56,5.88A13.06,13.06,0,0,1,174.85,313.21Zm21.09,38.32a13.82,13.82,0,0,0-1.44-.88,36.13,36.13,0,0,1-10.79-8.59c-3.46-3.85-7-7.66-10.51-11.48-1.2-1.31-2.38-2.63-3.74-4.14a32.17,32.17,0,0,0,4.54-1.52,15.83,15.83,0,0,0,9.32-17.16c-.81-5.58-4.17-9.1-9.2-11.24a22.78,22.78,0,0,0-8.77-1.73c-7.07-.08-14.13,0-21.2,0-.26,0-.51,0-.77,0a1,1,0,0,0-1,.79c-.12.55.27.84.67,1.06a8,8,0,0,0,.86.33c1.48.52,3,1.11,4.44,1.58a3.25,3.25,0,0,1,2.3,2.43,19,19,0,0,1,.77,4.8c0,2.2,0,4.38,0,6.58q0,14.34,0,28.7a15.41,15.41,0,0,1-1,5.84,2.66,2.66,0,0,1-1.64,1.65c-1.65.65-3.28,1.39-4.91,2.1-.57.26-1.55.39-1.43,1.14.15.9,1.12.67,1.8.67h22.88c.3,0,.61,0,.91,0a.79.79,0,0,0,.8-.59.84.84,0,0,0-.51-1,6.32,6.32,0,0,0-.86-.32c-1.87-.65-3.72-1.33-5.59-2-2-.69-2.47-1.3-2.49-3.46q0-8.25,0-16.49c0-.36-.22-.91.25-1.1s.75.37,1.1.63a1.1,1.1,0,0,1,.2.23q7.08,7.67,14.19,15.35a43,43,0,0,0,8.71,7.37,16,16,0,0,0,9.83,2.64,9,9,0,0,0,2.08-.42,1.13,1.13,0,0,0,.82-.84C196.7,351.93,196.27,351.75,195.94,351.53Zm-5.49.1a18.22,18.22,0,0,1-6.42-4,131.42,131.42,0,0,1-10.26-10.45c-3.58-3.82-7.16-7.65-10.68-11.5a1.31,1.31,0,0,0-1.84-.37,4.82,4.82,0,0,1-1.12.47c-.57.21-1.34.23-1.67.61-.44.53-.16,1.37-.16,2.08,0,5,0,10.08,0,15.11,0,.46,0,.91,0,1.36.25,2.5.49,3.75,3.48,4.68,1.29.41,2.55.9,3.81,1.35l-.06.2H146.68a.38.38,0,0,0,0-.16c2.34-.78,4.7-1.53,7-2.3,1.41-.47,1.41-.47,1.41-1.88V300.3c0-1.34,0-1.34-1.33-1.81-2.38-.85-4.78-1.69-7.16-2.52.1-.45.42-.29.61-.29,6.1,0,12.19-.06,18.3,0a19.87,19.87,0,0,1,9.36,2.32,13.17,13.17,0,0,1,7.19,10.65,15.33,15.33,0,0,1-1.43,8.9c-1.64,3.3-4.56,5.09-7.81,6.45a47,47,0,0,1-5.32,1.71c-.14.49.25.67.47.92,4.54,4.86,9.08,9.75,13.64,14.59,1.85,2,3.75,3.87,5.78,5.66a27.85,27.85,0,0,0,7.17,5A6.48,6.48,0,0,1,190.45,351.63ZM175.16,319.2a10.76,10.76,0,0,0,3.78-9.53,10.56,10.56,0,0,0-6.61-9.63,20.08,20.08,0,0,0-9.85-1.53c-2.63.23-3.81.78-4.16,4.05a13,13,0,0,0-.06,1.53v8.39c0,2.54,0,5.09,0,7.63,0,1-.43,2.16.2,2.81s1.94.23,2.94.27a23.08,23.08,0,0,0,8.69-1.2A16.93,16.93,0,0,0,175.16,319.2Zm-14.8,2.95c-.78.06-.94-.33-.94-1,0-3.09,0-6.21,0-9.3V303.3a5.9,5.9,0,0,1,.21-1.81,2,2,0,0,1,1.85-1.57c4.11-.35,7.92.38,10.93,3.46a8.85,8.85,0,0,1,2.57,5.88,14.91,14.91,0,0,1-.15,3.95,9.65,9.65,0,0,1-6.17,7.39A25.74,25.74,0,0,1,160.36,322.15Zm18.58-12.48a10.56,10.56,0,0,0-6.61-9.63,20.08,20.08,0,0,0-9.85-1.53c-2.63.23-3.81.78-4.16,4.05a13,13,0,0,0-.06,1.53v8.39c0,2.54,0,5.09,0,7.63,0,1-.43,2.16.2,2.81s1.94.23,2.94.27a23.08,23.08,0,0,0,8.69-1.2,16.58,16.58,0,0,0,5-2.77A10.78,10.78,0,0,0,178.94,309.67Zm-4.09,3.54a9.65,9.65,0,0,1-6.17,7.39,27.12,27.12,0,0,1-8.34,1.55c-.78.06-.94-.33-.94-1,0-3.09,0-6.21,0-9.3V303.3a6.21,6.21,0,0,1,.2-1.81,2.06,2.06,0,0,1,1.86-1.57c4.11-.35,7.92.38,10.93,3.46a8.79,8.79,0,0,1,2.56,5.88A13.06,13.06,0,0,1,174.85,313.21Zm4.09-3.54a10.56,10.56,0,0,0-6.61-9.63,20.08,20.08,0,0,0-9.85-1.53c-2.63.23-3.81.78-4.16,4.05a13,13,0,0,0-.06,1.53v8.39c0,2.54,0,5.09,0,7.63,0,1-.43,2.16.2,2.81s1.94.23,2.94.27a23.08,23.08,0,0,0,8.69-1.2,16.58,16.58,0,0,0,5-2.77A10.78,10.78,0,0,0,178.94,309.67Zm-4.09,3.54a9.65,9.65,0,0,1-6.17,7.39,27.12,27.12,0,0,1-8.34,1.55c-.78.06-.94-.33-.94-1,0-3.09,0-6.21,0-9.3V303.3a6.21,6.21,0,0,1,.2-1.81,2.06,2.06,0,0,1,1.86-1.57c4.11-.35,7.92.38,10.93,3.46a8.79,8.79,0,0,1,2.56,5.88A13.06,13.06,0,0,1,174.85,313.21Zm4.09-3.54a10.56,10.56,0,0,0-6.61-9.63,20.08,20.08,0,0,0-9.85-1.53c-2.63.23-3.81.78-4.16,4.05a13,13,0,0,0-.06,1.53v8.39c0,2.54,0,5.09,0,7.63,0,1-.43,2.16.2,2.81s1.94.23,2.94.27a23.08,23.08,0,0,0,8.69-1.2,16.58,16.58,0,0,0,5-2.77A10.78,10.78,0,0,0,178.94,309.67Zm-4.09,3.54a9.65,9.65,0,0,1-6.17,7.39,27.12,27.12,0,0,1-8.34,1.55c-.78.06-.94-.33-.94-1,0-3.09,0-6.21,0-9.3V303.3a6.21,6.21,0,0,1,.2-1.81,2.06,2.06,0,0,1,1.86-1.57c4.11-.35,7.92.38,10.93,3.46a8.79,8.79,0,0,1,2.56,5.88A13.06,13.06,0,0,1,174.85,313.21Zm4.09-3.54a10.56,10.56,0,0,0-6.61-9.63,20.08,20.08,0,0,0-9.85-1.53c-2.63.23-3.81.78-4.16,4.05a13,13,0,0,0-.06,1.53v8.39c0,2.54,0,5.09,0,7.63,0,1-.43,2.16.2,2.81s1.94.23,2.94.27a23.08,23.08,0,0,0,8.69-1.2,16.58,16.58,0,0,0,5-2.77A10.78,10.78,0,0,0,178.94,309.67Zm-4.09,3.54a9.65,9.65,0,0,1-6.17,7.39,27.12,27.12,0,0,1-8.34,1.55c-.78.06-.94-.33-.94-1,0-3.09,0-6.21,0-9.3V303.3a6.21,6.21,0,0,1,.2-1.81,2.06,2.06,0,0,1,1.86-1.57c4.11-.35,7.92.38,10.93,3.46a8.79,8.79,0,0,1,2.56,5.88A13.06,13.06,0,0,1,174.85,313.21Zm4.09-3.54a10.56,10.56,0,0,0-6.61-9.63,20.08,20.08,0,0,0-9.85-1.53c-2.63.23-3.81.78-4.16,4.05a13,13,0,0,0-.06,1.53v8.39c0,2.54,0,5.09,0,7.63,0,1-.43,2.16.2,2.81s1.94.23,2.94.27a23.08,23.08,0,0,0,8.69-1.2,16.58,16.58,0,0,0,5-2.77A10.78,10.78,0,0,0,178.94,309.67Zm-4.09,3.54a9.65,9.65,0,0,1-6.17,7.39,27.12,27.12,0,0,1-8.34,1.55c-.78.06-.94-.33-.94-1,0-3.09,0-6.21,0-9.3V303.3a6.21,6.21,0,0,1,.2-1.81,2.06,2.06,0,0,1,1.86-1.57c4.11-.35,7.92.38,10.93,3.46a8.79,8.79,0,0,1,2.56,5.88A13.06,13.06,0,0,1,174.85,313.21Zm4.09-3.54a10.56,10.56,0,0,0-6.61-9.63,20.08,20.08,0,0,0-9.85-1.53c-2.63.23-3.81.78-4.16,4.05a13,13,0,0,0-.06,1.53v8.39c0,2.54,0,5.09,0,7.63,0,1-.43,2.16.2,2.81s1.94.23,2.94.27a23.08,23.08,0,0,0,8.69-1.2,16.58,16.58,0,0,0,5-2.77A10.78,10.78,0,0,0,178.94,309.67Zm-4.09,3.54a9.65,9.65,0,0,1-6.17,7.39,27.12,27.12,0,0,1-8.34,1.55c-.78.06-.94-.33-.94-1,0-3.09,0-6.21,0-9.3V303.3a6.21,6.21,0,0,1,.2-1.81,2.06,2.06,0,0,1,1.86-1.57c4.11-.35,7.92.38,10.93,3.46a8.79,8.79,0,0,1,2.56,5.88A13.06,13.06,0,0,1,174.85,313.21Zm4.09-3.54a10.56,10.56,0,0,0-6.61-9.63,20.08,20.08,0,0,0-9.85-1.53c-2.63.23-3.81.78-4.16,4.05a13,13,0,0,0-.06,1.53v8.39c0,2.54,0,5.09,0,7.63,0,1-.43,2.16.2,2.81s1.94.23,2.94.27a23.08,23.08,0,0,0,8.69-1.2,16.58,16.58,0,0,0,5-2.77A10.78,10.78,0,0,0,178.94,309.67Zm-4.09,3.54a9.65,9.65,0,0,1-6.17,7.39,27.12,27.12,0,0,1-8.34,1.55c-.78.06-.94-.33-.94-1,0-3.09,0-6.21,0-9.3V303.3a6.21,6.21,0,0,1,.2-1.81,2.06,2.06,0,0,1,1.86-1.57c4.11-.35,7.92.38,10.93,3.46a8.79,8.79,0,0,1,2.56,5.88A13.06,13.06,0,0,1,174.85,313.21Zm4.09-3.54a10.56,10.56,0,0,0-6.61-9.63,20.08,20.08,0,0,0-9.85-1.53c-2.63.23-3.81.78-4.16,4.05a13,13,0,0,0-.06,1.53v8.39c0,2.54,0,5.09,0,7.63,0,1-.43,2.16.2,2.81s1.94.23,2.94.27a23.08,23.08,0,0,0,8.69-1.2,16.58,16.58,0,0,0,5-2.77A10.78,10.78,0,0,0,178.94,309.67Zm-4.09,3.54a9.65,9.65,0,0,1-6.17,7.39,27.12,27.12,0,0,1-8.34,1.55c-.78.06-.94-.33-.94-1,0-3.09,0-6.21,0-9.3V303.3a6.21,6.21,0,0,1,.2-1.81,2.06,2.06,0,0,1,1.86-1.57c4.11-.35,7.92.38,10.93,3.46a8.79,8.79,0,0,1,2.56,5.88A13.06,13.06,0,0,1,174.85,313.21Zm4.09-3.54a10.56,10.56,0,0,0-6.61-9.63,20.08,20.08,0,0,0-9.85-1.53c-2.63.23-3.81.78-4.16,4.05a13,13,0,0,0-.06,1.53v8.39c0,2.54,0,5.09,0,7.63,0,1-.43,2.16.2,2.81s1.94.23,2.94.27a23.08,23.08,0,0,0,8.69-1.2,16.58,16.58,0,0,0,5-2.77A10.78,10.78,0,0,0,178.94,309.67Zm-4.09,3.54a9.65,9.65,0,0,1-6.17,7.39,27.12,27.12,0,0,1-8.34,1.55c-.78.06-.94-.33-.94-1,0-3.09,0-6.21,0-9.3V303.3a6.21,6.21,0,0,1,.2-1.81,2.06,2.06,0,0,1,1.86-1.57c4.11-.35,7.92.38,10.93,3.46a8.79,8.79,0,0,1,2.56,5.88A13.06,13.06,0,0,1,174.85,313.21Zm4.09-3.54a10.56,10.56,0,0,0-6.61-9.63,20.08,20.08,0,0,0-9.85-1.53c-2.63.23-3.81.78-4.16,4.05a13,13,0,0,0-.06,1.53v8.39c0,2.54,0,5.09,0,7.63,0,1-.43,2.16.2,2.81s1.94.23,2.94.27a23.08,23.08,0,0,0,8.69-1.2,16.58,16.58,0,0,0,5-2.77A10.78,10.78,0,0,0,178.94,309.67Zm-4.09,3.54a9.65,9.65,0,0,1-6.17,7.39,27.12,27.12,0,0,1-8.34,1.55c-.78.06-.94-.33-.94-1,0-3.09,0-6.21,0-9.3V303.3a6.21,6.21,0,0,1,.2-1.81,2.06,2.06,0,0,1,1.86-1.57c4.11-.35,7.92.38,10.93,3.46a8.79,8.79,0,0,1,2.56,5.88A13.06,13.06,0,0,1,174.85,313.21Zm4.09-3.54a10.56,10.56,0,0,0-6.61-9.63,20.08,20.08,0,0,0-9.85-1.53c-2.63.23-3.81.78-4.16,4.05a13,13,0,0,0-.06,1.53v8.39c0,2.54,0,5.09,0,7.63,0,1-.43,2.16.2,2.81s1.94.23,2.94.27a23.08,23.08,0,0,0,8.69-1.2,16.58,16.58,0,0,0,5-2.77A10.78,10.78,0,0,0,178.94,309.67Zm-4.09,3.54a9.65,9.65,0,0,1-6.17,7.39,27.12,27.12,0,0,1-8.34,1.55c-.78.06-.94-.33-.94-1,0-3.09,0-6.21,0-9.3V303.3a6.21,6.21,0,0,1,.2-1.81,2.06,2.06,0,0,1,1.86-1.57c4.11-.35,7.92.38,10.93,3.46a8.79,8.79,0,0,1,2.56,5.88A13.06,13.06,0,0,1,174.85,313.21Zm4.09-3.54a10.56,10.56,0,0,0-6.61-9.63,20.08,20.08,0,0,0-9.85-1.53c-2.63.23-3.81.78-4.16,4.05a13,13,0,0,0-.06,1.53v8.39c0,2.54,0,5.09,0,7.63,0,1-.43,2.16.2,2.81s1.94.23,2.94.27a23.08,23.08,0,0,0,8.69-1.2,16.58,16.58,0,0,0,5-2.77A10.78,10.78,0,0,0,178.94,309.67Zm-4.09,3.54a9.65,9.65,0,0,1-6.17,7.39,27.12,27.12,0,0,1-8.34,1.55c-.78.06-.94-.33-.94-1,0-3.09,0-6.21,0-9.3V303.3a6.21,6.21,0,0,1,.2-1.81,2.06,2.06,0,0,1,1.86-1.57c4.11-.35,7.92.38,10.93,3.46a8.79,8.79,0,0,1,2.56,5.88A13.06,13.06,0,0,1,174.85,313.21Z"/><path class="cls-3" d="M260.82,334.14c-.75-4.4-3.66-7.41-7.39-9.59S245.8,320.3,242,318.2a25,25,0,0,1-5-3.48,8,8,0,0,1,.18-12.32,12.33,12.33,0,0,1,7.82-3c3.68-.1,6.51,1.28,8,4.86.81,2,1.75,3.89,2.62,5.85a8.16,8.16,0,0,0,.49.93c.21.31.47.57.88.47a.89.89,0,0,0,.67-.75,4.78,4.78,0,0,0,0-.75c0-4.48,0-9,0-13.44a1.21,1.21,0,0,0-1.06-1.37,46.4,46.4,0,0,0-7.14-1.48,29.51,29.51,0,0,0-10.88.75c-6.71,1.83-12.74,7.49-12.17,16.45.35,5.5,3.14,9.49,7.74,12.2,4,2.34,8.12,4.39,12.19,6.61a20.41,20.41,0,0,1,5,3.75c3.74,3.93,2.42,11.24-3.14,13.23a19.48,19.48,0,0,1-8.87.73,8.2,8.2,0,0,1-7.17-5.55c-.77-2-1.71-3.91-2.56-5.87a4.39,4.39,0,0,0-.41-.81.75.75,0,0,0-1.43.41c0,.34,0,.71,0,1.05V350.1c0,1.3,0,1.34,1.25,1.71a42.45,42.45,0,0,0,18.05,1.57,19.09,19.09,0,0,0,6.35-2.06C260,347.78,261.94,340.63,260.82,334.14Zm-.89,4.76a16.23,16.23,0,0,1-2.1,6.62,12.8,12.8,0,0,1-7.65,5.68,24.34,24.34,0,0,1-16.11-1c-2.26-.89-3.56-2-3.76-4.58a66.92,66.92,0,0,0-1.39-7.59c.51.24.59.63.76.95.67,1.43,1.32,2.87,2,4.3a9.2,9.2,0,0,0,6.78,5.37,21.3,21.3,0,0,0,11.28-.57c6.19-2.09,8.16-8.4,7-13.25a11.18,11.18,0,0,0-4.09-5.74,29.29,29.29,0,0,0-5.17-3.2l-10.1-5.37a17.94,17.94,0,0,1-4.88-3.87,10.22,10.22,0,0,1-2-10.69,15.91,15.91,0,0,1,7.39-8.59,18.73,18.73,0,0,1,9.43-2.62,25.06,25.06,0,0,1,7,.63,12.33,12.33,0,0,1,1.3.38,1.62,1.62,0,0,1,1.14,1.61c0,3.59,0,7.17,0,11a5.13,5.13,0,0,1-.81-2.33c-.55-2-1-4.13-1.51-6.2a1.22,1.22,0,0,0-.94-1.06c-4.35-1.06-8.71-1.45-13,0-2.78.95-5.13,2.54-6.33,5.35-1.69,3.93-1.26,7.72,1.86,10.81a27,27,0,0,0,6.49,4.48L252.54,325a15.67,15.67,0,0,1,4.91,4.29A12.55,12.55,0,0,1,259.93,338.9Z"/><path class="cls-3" d="M308.32,294.1c0-1.53-.31-1.69-1.73-.94A15.24,15.24,0,0,1,299.3,295c-9,0-18,0-27,0a17.91,17.91,0,0,1-7.41-1.51c-1.27-.57-1.51-.42-1.51,1,0,5.23,0,10.49,0,15.72a1.86,1.86,0,0,0,.2,1.18.61.61,0,0,0,1.1,0,5.23,5.23,0,0,0,.37-.84c1-2.44,2-4.88,2.95-7.34a3.59,3.59,0,0,1,3.44-2.55c3.26-.12,6.52,0,9.75,0,.57,0,.86.22.82.81,0,.27,0,.51,0,.78v39.68a13.35,13.35,0,0,1-.63,3.88,4.35,4.35,0,0,1-3,3.18c-1.83.59-3.58,1.42-5.35,2.18-.37.16-.79.36-.71.87s.55.51.95.53.51,0,.78,0h23.63c.37,0,.72,0,1.06,0a.64.64,0,0,0,.59-.4.67.67,0,0,0-.24-.82,4.27,4.27,0,0,0-1-.47c-1.57-.59-3.11-1.28-4.72-1.73-2.12-.59-2.91-2.07-3.12-4a46.36,46.36,0,0,1-.3-4.72q0-9.16,0-18.32V301.85c0-1.22,0-1.24,1.3-1.24,2,0,4,.06,6,0a9,9,0,0,1,4.9,1.36,3.59,3.59,0,0,1,1.67,1.9c.84,2.13,1.73,4.23,2.61,6.35a9.92,9.92,0,0,0,.61,1.22.68.68,0,0,0,.77.37.67.67,0,0,0,.45-.57,3.18,3.18,0,0,0,0-.61C308.34,305.07,308.36,299.59,308.32,294.1Zm-1,13.13a.55.55,0,0,1-.18,0c-.71-3.1-1.43-6.19-2.2-9.51-2.16,2.1-4.8,1.63-7.27,1.79s-4.78,0-7.16,0c-1.51,0-1.53,0-1.53,1.49v42.42a8.81,8.81,0,0,0,1,4.26,3.73,3.73,0,0,0,2.24,1.91,17.71,17.71,0,0,1,3.58,1.57H276a.47.47,0,0,1,0-.16l4.46-1.31c1.51-.42,3-.89,4.54-1.26a1.19,1.19,0,0,0,1-1.4c0-2.75,0-5.5,0-8.25V299.61a3.72,3.72,0,0,0-.19-1.79,2,2,0,0,0-.49.24c-1.22,1.41-2.8,1.57-4.54,1.51-2.95-.1-5.9,0-8.83,0a4.37,4.37,0,0,0-4.5,2.95c-.67,1.65-1.4,3.24-2.16,5-.36-1.14-.47-11-.16-13.13a17.64,17.64,0,0,0,8.57,1.67c8.18,0,16.37,0,24.55,0a29.18,29.18,0,0,0,5.6-.61,12.78,12.78,0,0,0,3.58-1.47Z"/><path class="cls-4" d="M418.11,338.72c0-.47,0-1-.57-1.1s-.71.35-.94.65a10.45,10.45,0,0,0-.53.92c-.73,1.34-1.56,2.62-2.19,4a5.6,5.6,0,0,1-4.12,3.07,9.72,9.72,0,0,1-2.7.37c-2.69,0-5.4,0-8.09,0-1.81,0-2.6-.57-3.11-2.26a13.63,13.63,0,0,1-.57-3.75q-.06-18.93-.06-37.86a4.21,4.21,0,0,1,1.36-3.12,8.39,8.39,0,0,1,3.14-1.81c1.24-.45,2.5-.83,3.72-1.32.55-.23,1.57-.23,1.41-1s-1-.43-1.61-.43q-11.29,0-22.58,0h-1.52c-.35,0-.76,0-.92.37s.16.77.49,1a5.11,5.11,0,0,0,.93.48,43.3,43.3,0,0,0,4.24,1.73,3.94,3.94,0,0,1,2.85,3.24,23.17,23.17,0,0,1,.63,5.44v33.89c0,.57,0,1.12,0,1.69-.29,3.1-1.59,5.54-4.58,6.86a22.43,22.43,0,0,0-2.44,1.25c-.51.28-1.43.4-1.29,1.07s1,.43,1.61.43c5.7,0,11.38,0,17.08,0h6c3.8,0,7.63-.06,11.44,0a3,3,0,0,0,3-2.79C418.09,346.05,418.11,342.38,418.11,338.72Zm-1.22,10.2a2.15,2.15,0,0,1-2.4,2.36c-10.28,0-20.54,0-30.83,0-.18,0-.38,0-.89-.1l6.47-2,1.16-.36a.84.84,0,0,0,.65-.92V300.53c0-.21,0-.41,0-.61.15-.88-.26-1.29-1.09-1.49-2.08-.53-4.12-1.1-6.17-1.69A4.7,4.7,0,0,1,382,296h19c-.33.63-1,.57-1.44.73a11.6,11.6,0,0,0-3.3,1.55,4.47,4.47,0,0,0-2,3.75c0,12.66,0,25.34,0,38a22,22,0,0,0,.57,4.85c.11.39.21.79.35,1.18a2.39,2.39,0,0,0,2.65,1.81c3.6,0,7.22.06,10.83,0a6.16,6.16,0,0,1,4.41,1.18,2.47,2.47,0,0,0,.53.29c.08,0,.21,0,.45,0,.82-2.79,1.65-5.64,2.48-8.49l.23,0C416.93,343.59,417,346.25,416.89,348.92Z"/><path class="cls-3" d="M367.48,311.66c-5.05-9.24-12.91-14.06-23.51-14.1-1,0-1.94-.07-2.89,0a22.66,22.66,0,0,0-3.16.53c-8.63,2-14.74,7.08-18.06,15.3a25.68,25.68,0,0,0-.79,16.33c2.32,9.08,8,15.31,16.88,18.36a27,27,0,0,0,12.94.76,24.32,24.32,0,0,0,17.35-11.26,24.88,24.88,0,0,0,3.83-11.44A24.48,24.48,0,0,0,367.48,311.66ZM359,342.16a20.55,20.55,0,0,1-12.31,5.78,22.76,22.76,0,0,1-14.3-2.54,24.42,24.42,0,0,1-12.86-19.24,25.09,25.09,0,0,1,.83-11c2.87-8.6,8.72-13.93,17.69-15.54a23.1,23.1,0,0,1,12.32,1,23.39,23.39,0,0,1,12.26,10.73,24.6,24.6,0,0,1,3.4,13.05C366.14,331.51,363.92,337.38,359,342.16Z"/><path class="cls-3" d="M374.1,318.44c-1.75-10.89-8.11-18.54-18.18-22.76-8.63-3.62-17.53-3.15-26.14.31a29.62,29.62,0,0,0-16.35,15.43,30.29,30.29,0,0,0-2.12,17.73,28.41,28.41,0,0,0,12.95,20c5.37,3.59,11.38,5,18.14,4.91a34.88,34.88,0,0,0,6.92-.61A29.64,29.64,0,0,0,368.48,342C373.81,335,375.46,326.93,374.1,318.44Zm-19.67,32.27c-17.22,5.92-33.79-3.46-38.23-19-3-10.53-1.12-20.3,6.51-28.5a27,27,0,0,1,19-8.86,30,30,0,0,1,17.16,3.71c8,4.64,12.91,11.42,14.19,20.72a44.81,44.81,0,0,1,.3,5.5C373.73,336.93,364.45,347.25,354.43,350.71Z"/><path class="cls-3" d="M131.08,306.39c-.42-3.3-2.36-5.29-5.33-6.43a26.69,26.69,0,0,0-10.18-1.51c-3.38.06-4.64,1.35-4.7,4.77v7.94c0,2.85,0,5.7,0,8.55,0,.75.2,1.09,1,1.07a37.19,37.19,0,0,0,6.67-.42,18.55,18.55,0,0,0,7.92-3.36C130,314.31,131.67,310.87,131.08,306.39Zm-11.68,12.7a23.06,23.06,0,0,1-6,.62c-1.2,0-1.22,0-1.22-1.33,0-2.64,0-5.27,0-7.92s.06-5.37,0-8.08a2.21,2.21,0,0,1,2-2.46,14.84,14.84,0,0,1,9.76,1.34,7.17,7.17,0,0,1,3.8,6.05A10.39,10.39,0,0,1,119.4,319.09Z"/><path class="cls-3" d="M132.61,329.38a13.79,13.79,0,0,0-5.44-3.81c-5-2-10.11-1.81-15.28-1.39-.84.07-1,.53-1,1.31,0,3.15,0,6.31,0,9.44h0c0,3.06,0,6.09,0,9.14,0,2.55,1.1,3.87,3.56,4.06a29.16,29.16,0,0,0,12.6-1.41c4.54-1.69,7.35-4.74,7.84-9.71A9.7,9.7,0,0,0,132.61,329.38ZM122.06,346.6A19,19,0,0,1,115,347c-2.16-.35-2.89-1.12-2.91-3.34,0-4.73,0-9.45,0-14.17,0-1.06,0-2.14,0-3.2,0-.71.26-1,1-1,1.16,0,2.34,0,3.5,0a17.77,17.77,0,0,1,8.75,1.45c2.65,1.24,4.74,3.09,5.27,6.09C131.55,338.54,129.72,344.93,122.06,346.6Z"/><path class="cls-3" d="M130.31,322.9c-1.22-.49-2.46-.87-3.87-1.36l1.92-1.16a14,14,0,0,0,7.08-10.65c.63-5.35-1.47-10.08-6.23-12.72a17.76,17.76,0,0,0-8.47-2.2c-8-.1-16.06,0-24.08-.06-.61,0-1.37,0-1.53.69s.63.83,1.12,1c1.41.61,2.85,1.1,4.24,1.71a5.31,5.31,0,0,1,3.4,5.39c-.09,13.13,0,26.24,0,39.37V344a5,5,0,0,1-2.54,4.42c-.57.33-1.16.61-1.77.9-1.16.53-2.32,1-3.48,1.54-.39.19-1,.37-.88.9s.71.63,1.24.63h.31c7.78-.14,15.55.31,23.31-.28a32.32,32.32,0,0,0,9.06-1.9c4.88-1.85,8.49-5,9.73-10.28C140.55,332.61,137.88,325.94,130.31,322.9Zm-1.2,26.18a27,27,0,0,1-9.63,2.08c-6.7.3-13.42.08-20.2-.16,2.24-.78,4.48-1.55,6.72-2.35,1.79-.63,1.49-.48,1.49-2.11v-46c0-1.83.18-1.57-1.63-2.16-2.3-.75-4.6-1.48-6.9-2.46.3,0,.63-.06.93-.06h19.67a20.31,20.31,0,0,1,7.31,1.26,10.64,10.64,0,0,1,7.23,10.12,16.7,16.7,0,0,1-.17,3.8,11.14,11.14,0,0,1-5.23,7.54,45.53,45.53,0,0,1-4.93,2.74,1.91,1.91,0,0,0-1,.64c1.16.28,2.22.53,3.28.81a19.78,19.78,0,0,1,8.48,4.28,10.49,10.49,0,0,1,3.38,6.65C138.86,341.1,135.79,346.19,129.11,349.08Z"/><path class="cls-4" d="M222.12,350.71c-1.69-.67-3.4-1.38-5.13-1.95a3.49,3.49,0,0,1-2.4-2.85,18.69,18.69,0,0,1-.3-3.79V304.58c0-.61,0-1.22,0-1.83a6.88,6.88,0,0,1,5.15-6.11c.69-.16,1.4-.18,2.11-.29.55-.08,1.45.19,1.37-.71s-.94-.61-1.51-.61c-7.63,0-15.25,0-22.86,0a9.42,9.42,0,0,0-1.06.06.59.59,0,0,0-.51.49.55.55,0,0,0,.37.59,5.66,5.66,0,0,0,1.18.29c4.89.87,7.76,4.23,7.76,9.24,0,12.46,0,24.92,0,37.38a16.48,16.48,0,0,1-.25,2.72,3.76,3.76,0,0,1-2.64,3.22c-1.63.59-3.22,1.22-4.83,1.87-.55.23-1.38.35-1.2,1.1s.94.43,1.49.43c3.76,0,7.51,0,11.27,0h11.59c.61,0,1.38,0,1.5-.71S222.63,350.91,222.12,350.71Zm-2.38.51h-18.2c0-.06,0-.12,0-.18,2.32-.7,4.64-1.37,7-2.06,1.51-.45,1.51-.47,1.51-2.1V300.94c0-2.1,0-1.69-1.71-2.26-2.18-.72-4.34-1.41-6.51-2.1a1.64,1.64,0,0,1-.88-.49h18a1.69,1.69,0,0,1-.88.49c-2.89,1-4.13,3.28-4.54,6.13a32.43,32.43,0,0,0-.26,4.41c0,11.85,0,23.7,0,35.57a13.2,13.2,0,0,0,.77,4.78,3.53,3.53,0,0,0,2.32,2.24c1.2.39,2.34.88,3.52,1.33A.74.74,0,0,1,219.74,351.22Z"/><path class="cls-5" d="M178.94,309.67a10.56,10.56,0,0,0-6.61-9.63,20.08,20.08,0,0,0-9.85-1.53c-2.63.23-3.81.78-4.16,4.05a13,13,0,0,0-.06,1.53v8.39c0,2.54,0,5.09,0,7.63,0,1-.43,2.16.2,2.81s1.94.23,2.94.27a23.08,23.08,0,0,0,8.69-1.2,16.58,16.58,0,0,0,5-2.77A10.78,10.78,0,0,0,178.94,309.67Zm-4.09,3.54a9.65,9.65,0,0,1-6.17,7.39,27.12,27.12,0,0,1-8.34,1.55c-.78.06-.94-.33-.94-1,0-3.09,0-6.21,0-9.3V303.3a6.21,6.21,0,0,1,.2-1.81,2.06,2.06,0,0,1,1.86-1.57c4.11-.35,7.92.38,10.93,3.46a8.79,8.79,0,0,1,2.56,5.88A13.06,13.06,0,0,1,174.85,313.21Z"/><path class="cls-5" d="M367.48,311.66c-5.05-9.24-12.91-14.06-23.51-14.1-1,0-1.94-.07-2.89,0a22.66,22.66,0,0,0-3.16.53c-8.63,2-14.74,7.08-18.06,15.3a25.68,25.68,0,0,0-.79,16.33c2.32,9.08,8,15.31,16.88,18.36a27,27,0,0,0,12.94.76,24.32,24.32,0,0,0,17.35-11.26,24.88,24.88,0,0,0,3.83-11.44A24.48,24.48,0,0,0,367.48,311.66ZM359,342.16a20.55,20.55,0,0,1-12.31,5.78,22.76,22.76,0,0,1-14.3-2.54,24.42,24.42,0,0,1-12.86-19.24,25.09,25.09,0,0,1,.83-11c2.87-8.6,8.72-13.93,17.69-15.54a23.1,23.1,0,0,1,12.32,1,23.39,23.39,0,0,1,12.26,10.73,24.6,24.6,0,0,1,3.4,13.05C366.14,331.51,363.92,337.38,359,342.16Z"/><path class="cls-5" d="M131.08,306.39c-.42-3.3-2.36-5.29-5.33-6.43a26.69,26.69,0,0,0-10.18-1.51c-3.38.06-4.64,1.35-4.7,4.77v7.94c0,2.85,0,5.7,0,8.55,0,.75.2,1.09,1,1.07a37.19,37.19,0,0,0,6.67-.42,18.55,18.55,0,0,0,7.92-3.36C130,314.31,131.67,310.87,131.08,306.39Zm-11.68,12.7a23.06,23.06,0,0,1-6,.62c-1.2,0-1.22,0-1.22-1.33,0-2.64,0-5.27,0-7.92s.06-5.37,0-8.08a2.21,2.21,0,0,1,2-2.46,14.84,14.84,0,0,1,9.76,1.34,7.17,7.17,0,0,1,3.8,6.05A10.39,10.39,0,0,1,119.4,319.09Z"/><path class="cls-5" d="M132.61,329.38a13.79,13.79,0,0,0-5.44-3.81c-5-2-10.11-1.81-15.28-1.39-.84.07-1,.53-1,1.31,0,3.15,0,6.31,0,9.44h0c0,3.06,0,6.09,0,9.14,0,2.55,1.1,3.87,3.56,4.06a29.16,29.16,0,0,0,12.6-1.41c4.54-1.69,7.35-4.74,7.84-9.71A9.7,9.7,0,0,0,132.61,329.38ZM122.06,346.6A19,19,0,0,1,115,347c-2.16-.35-2.89-1.12-2.91-3.34,0-4.73,0-9.45,0-14.17,0-1.06,0-2.14,0-3.2,0-.71.26-1,1-1,1.16,0,2.34,0,3.5,0a17.77,17.77,0,0,1,8.75,1.45c2.65,1.24,4.74,3.09,5.27,6.09C131.55,338.54,129.72,344.93,122.06,346.6Z"/><path class="cls-2" d="M178.94,309.67a10.56,10.56,0,0,0-6.61-9.63,20.08,20.08,0,0,0-9.85-1.53c-2.63.23-3.81.78-4.16,4.05a13,13,0,0,0-.06,1.53v8.39c0,2.54,0,5.09,0,7.63,0,1-.43,2.16.2,2.81s1.94.23,2.94.27a23.08,23.08,0,0,0,8.69-1.2,16.58,16.58,0,0,0,5-2.77A10.78,10.78,0,0,0,178.94,309.67Zm-4.09,3.54a9.65,9.65,0,0,1-6.17,7.39,27.12,27.12,0,0,1-8.34,1.55c-.78.06-.94-.33-.94-1,0-3.09,0-6.21,0-9.3V303.3a6.21,6.21,0,0,1,.2-1.81,2.06,2.06,0,0,1,1.86-1.57c4.11-.35,7.92.38,10.93,3.46a8.79,8.79,0,0,1,2.56,5.88A13.06,13.06,0,0,1,174.85,313.21Z"/><path class="cls-3" d="M367.48,311.66c-5.05-9.24-12.91-14.06-23.51-14.1-1,0-1.94-.07-2.89,0a22.66,22.66,0,0,0-3.16.53c-8.63,2-14.74,7.08-18.06,15.3a25.68,25.68,0,0,0-.79,16.33c2.32,9.08,8,15.31,16.88,18.36a27,27,0,0,0,12.94.76,24.32,24.32,0,0,0,17.35-11.26,24.88,24.88,0,0,0,3.83-11.44A24.48,24.48,0,0,0,367.48,311.66ZM359,342.16a20.55,20.55,0,0,1-12.31,5.78,22.76,22.76,0,0,1-14.3-2.54,24.42,24.42,0,0,1-12.86-19.24,25.09,25.09,0,0,1,.83-11c2.87-8.6,8.72-13.93,17.69-15.54a23.1,23.1,0,0,1,12.32,1,23.39,23.39,0,0,1,12.26,10.73,24.6,24.6,0,0,1,3.4,13.05C366.14,331.51,363.92,337.38,359,342.16Z"/><path class="cls-4" d="M132.61,329.38a13.79,13.79,0,0,0-5.44-3.81c-5-2-10.11-1.81-15.28-1.39-.84.07-1,.53-1,1.31,0,3.15,0,6.31,0,9.44h0c0,3.06,0,6.09,0,9.14,0,2.55,1.1,3.87,3.56,4.06a29.16,29.16,0,0,0,12.6-1.41c4.54-1.69,7.35-4.74,7.84-9.71A9.7,9.7,0,0,0,132.61,329.38ZM122.06,346.6A19,19,0,0,1,115,347c-2.16-.35-2.89-1.12-2.91-3.34,0-4.73,0-9.45,0-14.17,0-1.06,0-2.14,0-3.2,0-.71.26-1,1-1,1.16,0,2.34,0,3.5,0a17.77,17.77,0,0,1,8.75,1.45c2.65,1.24,4.74,3.09,5.27,6.09C131.55,338.54,129.72,344.93,122.06,346.6Z"/><path class="cls-2" d="M131.08,306.39c-.42-3.3-2.36-5.29-5.33-6.43a26.69,26.69,0,0,0-10.18-1.51c-3.38.06-4.64,1.35-4.7,4.77v7.94c0,2.85,0,5.7,0,8.55,0,.75.2,1.09,1,1.07a37.19,37.19,0,0,0,6.67-.42,18.55,18.55,0,0,0,7.92-3.36C130,314.31,131.67,310.87,131.08,306.39Zm-11.68,12.7a23.06,23.06,0,0,1-6,.62c-1.2,0-1.22,0-1.22-1.33,0-2.64,0-5.27,0-7.92s.06-5.37,0-8.08a2.21,2.21,0,0,1,2-2.46,14.84,14.84,0,0,1,9.76,1.34,7.17,7.17,0,0,1,3.8,6.05A10.39,10.39,0,0,1,119.4,319.09Z"/></svg>