<svg id="Layer_1" data-name="Layer 1" xmlns="http://www.w3.org/2000/svg" xmlns:xlink="http://www.w3.org/1999/xlink" viewBox="0 0 512 200"><defs><style>.cls-1{fill:none;}.cls-2{fill:#27aee4;}.cls-3{fill:#fff;}.cls-4{clip-path:url(#clip-path);}.cls-5{fill:url(#linear-gradient);}</style><clipPath id="clip-path"><path class="cls-1" d="M91.93,43.53a7.64,7.64,0,1,0,0,15.27h86.53a7.64,7.64,0,1,0,0-15.27Z"/></clipPath><linearGradient id="linear-gradient" x1="599.81" y1="65.49" x2="600.69" y2="65.49" gradientTransform="matrix(114.49, 0, 0, -114.49, -68585.9, 7549.29)" gradientUnits="userSpaceOnUse"><stop offset="0" stop-color="#fff"/><stop offset="0.06" stop-color="#edf8fd"/><stop offset="0.32" stop-color="#a7def4"/><stop offset="0.55" stop-color="#70c9ed"/><stop offset="0.75" stop-color="#48bbe8"/><stop offset="0.9" stop-color="#30b1e5"/><stop offset="1" stop-color="#27aee4"/></linearGradient></defs><path class="cls-2" d="M16.94,44.46H37.23Q51,44.46,59.89,50A33.35,33.35,0,0,1,73.1,65.2a54.41,54.41,0,0,1,4.31,22.24,54.58,54.58,0,0,1-4.31,22.31A33.69,33.69,0,0,1,59.93,125q-8.88,5.54-22.7,5.54H16.94ZM28,54.63v65.75h8.28q10.19,0,16.64-4.24A25.14,25.14,0,0,0,62.5,104.5a44.35,44.35,0,0,0,3.17-16.93,44.19,44.19,0,0,0-3.07-17A25,25,0,0,0,53,58.91q-6.52-4.27-16.7-4.28Z"/><rect class="cls-2" x="85.95" y="77.01" width="11.35" height="53.55"/><path class="cls-2" d="M151.18,130.56V120.12a14.94,14.94,0,0,1-3,4.5,23.92,23.92,0,0,1-6.85,5.19,21.43,21.43,0,0,1-10.21,2.32,26.2,26.2,0,0,1-13.47-3.53,25.67,25.67,0,0,1-9.59-9.88,30,30,0,0,1-3.55-14.9A30.06,30.06,0,0,1,108,88.91a25.82,25.82,0,0,1,23.06-13.47,22.76,22.76,0,0,1,10.08,2.09A23.28,23.28,0,0,1,148,82.36a11.4,11.4,0,0,1,3,4.69V77h11.22v53.55ZM133.7,159.2a46.37,46.37,0,0,1-11.45-1.31,31.8,31.8,0,0,1-8.94-3.68,21.1,21.1,0,0,1-6.09-5.58l7.43-7.11a25.08,25.08,0,0,0,3.36,3.62,17.83,17.83,0,0,0,5.77,3.29,27.48,27.48,0,0,0,9.53,1.37,18.26,18.26,0,0,0,9.72-2.44,16.06,16.06,0,0,0,6.06-6.62,20.78,20.78,0,0,0,2.09-9.4v-1.76h11.09v2.48q0,8.87-3.82,14.91a24.4,24.4,0,0,1-10.27,9.13,33.14,33.14,0,0,1-14.48,3.1m-18-55.38a19.11,19.11,0,0,0,2.54,10,18.09,18.09,0,0,0,6.62,6.56,17.39,17.39,0,0,0,8.71,2.31,16.53,16.53,0,0,0,15.07-9,22.83,22.83,0,0,0,0-19.89,17,17,0,0,0-6.2-6.65,16.72,16.72,0,0,0-8.87-2.39,17.23,17.23,0,0,0-8.71,2.35,18.34,18.34,0,0,0-6.62,6.59,19.15,19.15,0,0,0-2.54,10"/><rect class="cls-2" x="172.64" y="77.01" width="11.35" height="53.55"/><path class="cls-3" d="M195.14,44.46h23.94a45.13,45.13,0,0,1,13.24,1.89,20.93,20.93,0,0,1,10.05,6.39q3.84,4.5,3.85,12.53a22.33,22.33,0,0,1-2.12,9.81,22.09,22.09,0,0,1-5.25,7.14,12.9,12.9,0,0,1-6.2,3.27,16.85,16.85,0,0,1,5.51,1.56A22.19,22.19,0,0,1,244,91a20,20,0,0,1,4.56,6.36,21,21,0,0,1,1.8,9,26.6,26.6,0,0,1-2.87,12.52,20.22,20.22,0,0,1-8.71,8.58q-5.85,3.11-14.78,3.1H195.14ZM206.23,82h14.42a14.12,14.12,0,0,0,8.15-2.19,13.42,13.42,0,0,0,4.76-5.6,16.81,16.81,0,0,0,1.57-7.08q0-7.5-4.41-10.44T219,53.78H206.23Zm0,39.2h16.63c4.14,0,7.34-.72,9.63-2.18a11.89,11.89,0,0,0,4.82-5.71,20,20,0,0,0,1.41-7.5,13.9,13.9,0,0,0-4.31-10.63q-4.31-4-12.46-4H206.23Z"/><path class="cls-3" d="M268.91,130.56H257.63V77h11.28v9.26h-.32A10.57,10.57,0,0,1,271,82a19.57,19.57,0,0,1,5.74-4.57,17.89,17.89,0,0,1,8.74-2,19.61,19.61,0,0,1,6.56,1,14,14,0,0,1,4,2l-4.63,9.39a10.41,10.41,0,0,0-3.2-1.85,14.86,14.86,0,0,0-5.67-1,10.83,10.83,0,0,0-7.37,2.67,17.62,17.62,0,0,0-4.67,6.43,18,18,0,0,0-1.6,7Z"/><path class="cls-3" d="M303.94,58.68a7.46,7.46,0,0,1-7.43-7.44A7.25,7.25,0,0,1,298.69,46a7.3,7.3,0,0,1,9-1.18,8.26,8.26,0,0,1,2.77,2.71,6.88,6.88,0,0,1,1.05,3.75,7.08,7.08,0,0,1-2.22,5.25,7.34,7.34,0,0,1-5.35,2.19M298.14,77h11.35v53.55H298.14Z"/><path class="cls-3" d="M343.93,132.13a25,25,0,0,1-13.21-3.53,24.67,24.67,0,0,1-9.2-9.88,31.46,31.46,0,0,1-3.36-14.9,31.48,31.48,0,0,1,3.36-14.91A25.89,25.89,0,0,1,354.36,77.5a23.53,23.53,0,0,1,7.18,4.79c1.78,1.83,2.8,3.41,3.07,4.76V40.8H376v89.76H364.8V120.12a13.55,13.55,0,0,1-3.55,5A26,26,0,0,1,354,130a23.29,23.29,0,0,1-10,2.09m2.61-9.4a17.9,17.9,0,0,0,9.06-2.35,17.38,17.38,0,0,0,6.56-6.62,21.41,21.41,0,0,0,0-19.89,17.72,17.72,0,0,0-15.62-9,16.2,16.2,0,0,0-8.48,2.35,17.53,17.53,0,0,0-6.3,6.59,20.19,20.19,0,0,0-2.38,10,20.13,20.13,0,0,0,2.38,10,17.3,17.3,0,0,0,6.3,6.56,16.35,16.35,0,0,0,8.48,2.31"/><path class="cls-3" d="M425.2,130.56V120.12a14.94,14.94,0,0,1-3,4.5,23.92,23.92,0,0,1-6.85,5.19,21.43,21.43,0,0,1-10.21,2.32,26.2,26.2,0,0,1-13.47-3.53,25.67,25.67,0,0,1-9.59-9.88,30,30,0,0,1-3.55-14.9,30.06,30.06,0,0,1,3.55-14.91,25.82,25.82,0,0,1,23.06-13.47,22.76,22.76,0,0,1,10.08,2.09A23.28,23.28,0,0,1,422,82.36a11.4,11.4,0,0,1,3,4.69V77h11.22v53.55ZM407.72,159.2a46.37,46.37,0,0,1-11.45-1.31,31.8,31.8,0,0,1-8.94-3.68,21.1,21.1,0,0,1-6.09-5.58l7.43-7.11a25.08,25.08,0,0,0,3.36,3.62,17.83,17.83,0,0,0,5.77,3.29,27.48,27.48,0,0,0,9.53,1.37,18.26,18.26,0,0,0,9.72-2.44,16.06,16.06,0,0,0,6.06-6.62,20.78,20.78,0,0,0,2.09-9.4v-1.76h11.09v2.48q0,8.87-3.82,14.91a24.4,24.4,0,0,1-10.27,9.13,33.14,33.14,0,0,1-14.48,3.1m-18-55.38a19.11,19.11,0,0,0,2.54,10,18.09,18.09,0,0,0,6.62,6.56,17.39,17.39,0,0,0,8.71,2.31,16.53,16.53,0,0,0,15.07-9,22.83,22.83,0,0,0,0-19.89,17,17,0,0,0-6.2-6.65,16.72,16.72,0,0,0-8.87-2.39,17.23,17.23,0,0,0-8.71,2.35,18.34,18.34,0,0,0-6.62,6.59,19.15,19.15,0,0,0-2.54,10"/><path class="cls-3" d="M452.53,106.1a19.72,19.72,0,0,0,2.09,8.81,15.21,15.21,0,0,0,6,6.32,19.24,19.24,0,0,0,9.88,2.35,21.74,21.74,0,0,0,8.45-1.47,19.36,19.36,0,0,0,5.71-3.52,18.33,18.33,0,0,0,3.2-3.68l5.54,6.85a23.88,23.88,0,0,1-5.25,5.47,22.51,22.51,0,0,1-7.54,3.62,39.57,39.57,0,0,1-10.82,1.28,29,29,0,0,1-14.91-3.69,24.83,24.83,0,0,1-9.68-10.24,32.15,32.15,0,0,1-3.4-15A30.78,30.78,0,0,1,445,89a24.16,24.16,0,0,1,9.3-10A28.12,28.12,0,0,1,469,75.44a27.48,27.48,0,0,1,13.74,3.3A22.84,22.84,0,0,1,491.83,88a29.93,29.93,0,0,1,3.23,14.35q0,.53-.06,1.86c-.05.89-.09,1.51-.14,1.86Zm31.7-8.55a15,15,0,0,0-1.53-5.87A13.74,13.74,0,0,0,478,86.2q-3.25-2.28-8.81-2.28a17,17,0,0,0-9.23,2.22,14.1,14.1,0,0,0-5.12,5.38,16.76,16.76,0,0,0-1.89,6Z"/><g class="cls-4"><rect class="cls-5" x="84.29" y="43.53" width="101.8" height="15.27"/></g></svg>