<svg id="Layer_1" data-name="Layer 1" xmlns="http://www.w3.org/2000/svg" viewBox="0 0 512 512"><defs><style>.cls-1{fill:#fef7dd;}.cls-2{fill:#231f20;}</style></defs><rect class="cls-1" x="-14.76" y="-13.61" width="533.11" height="554.55"/><path class="cls-2" d="M350.86,382.82c-5.69-21.57-36.84-124.14-44.29-148.2a11.85,11.85,0,0,0,2.15-6.79l-.06-13.34a11.82,11.82,0,0,0,3.77-3.42,11.48,11.48,0,0,0,2.16-6.76V192.59a11.57,11.57,0,0,0-5.87-10.1V112a17.69,17.69,0,0,0-17.66-17.68H220.53A17.71,17.71,0,0,0,202.84,112l0,70.44A11.71,11.71,0,0,0,197,192.59v11.72a11.74,11.74,0,0,0,5.85,10.14l0,12.89-.31-.06h-.07a21.3,21.3,0,0,1-14.11-8.81l-4.17-5.8a5.95,5.95,0,1,0-9.77,6.79l4.18,5.86a35,35,0,0,0,9.9,9.29l-.24.2a17.37,17.37,0,0,0-2.66,2.09l-4.53,4.22a5.88,5.88,0,0,0-1.83,4.16,5.75,5.75,0,0,0,1.61,4.18,5.93,5.93,0,0,0,8.38.28l4.49-4.19a21.4,21.4,0,0,1,9.54-5.29l-2.79,9.33c-11.17,37.22-34.38,114.69-39.37,133.57-2.67,9.93-1.84,18.44,2.41,24.64,4.93,7.2,13.06,8.95,15.75,9.53h0s1.65.33,1.9.33a5.66,5.66,0,0,0,3.38-1.11,6.65,6.65,0,0,0,2.51-4.51,6,6,0,0,0-1.37-4.8,5.76,5.76,0,0,0-4.28-2c-.75-.12-5.52-1-8-4.63-2.22-3.15-2.49-8-.82-14.3,6-21.91,36.87-124.86,43.54-147.06h7.27c-3.19,12-8.76,33.17-14.61,55.48l-2.57,9.79c-8.64,32.92-17.57,67-20.64,78.29-2.67,9.93-1.82,18.44,2.43,24.62,4.91,7.21,13,9,15.71,9.53l1.21.3a5.63,5.63,0,0,0,4.52-1.37,6.75,6.75,0,0,0,2.1-4,5.07,5.07,0,0,0-.69-4.49,5.26,5.26,0,0,0-4.21-2.13c-.74-.12-5.5-1-8-4.63-2.2-3.15-2.47-8-.8-14.3,3.52-13,14.42-54.41,23.42-88.7l27.76,114.92a6.11,6.11,0,0,0,5.81,4.73,6,6,0,0,0,5.77-4.65l29.59-114.95c9.36,35.74,20,76.09,23.45,88.72,1.95,6.12,1.78,11-.47,14.25-2.4,3.46-6.8,4.4-8,4.61-3.7.07-5.69,3.24-5.69,6.2l0,.25a6.28,6.28,0,0,0,6.53,5.57c.12,0,11-.89,17.06-9.83,4.25-6.18,5.09-14.69,2.42-24.63-3-11.17-11.81-44.63-20.31-77-6.49-24.75-13.68-52.12-17.51-66.51h7.26c24.2,80.61,39.66,132.83,43.58,147.13,1.93,6.12,1.76,11-.54,14.33-2.09,3.39-6.41,4.34-7.58,4.53a5.89,5.89,0,0,0-4.39,2.08,5.4,5.4,0,0,0-1.27,4.37,6.28,6.28,0,0,0,6.54,5.57c.1,0,10.95-.89,17-9.83a24.1,24.1,0,0,0,4-13.92A41.65,41.65,0,0,0,350.86,382.82ZM220.53,106.25h70.53a5.82,5.82,0,0,1,5.81,5.82l.06,68.75-82.22.06V112.07A5.82,5.82,0,0,1,220.53,106.25Zm55.84,196.6-21.05,82.81L235.22,302l-7.17-30c3.23-12.43,6-23.09,7.84-30.19l.66-2.52h38.52c1.88,7.3,5.07,19.51,8.87,34Zm20.5-75-82.16.06-.06-11.69,82.22-.06Zm5.87-23.52-93.9.07-.07-11.7,94-.07Z"/></svg>