<svg id="Layer_1" data-name="Layer 1" xmlns="http://www.w3.org/2000/svg" viewBox="0 0 512 512"><defs><style>.cls-1{fill:#1f60ad;}.cls-2{fill:#fff;}</style></defs><rect class="cls-1" x="-9.39" y="-13.61" width="532.34" height="532.34"/><path class="cls-2" d="M345.64,331.84v-1.9h1.14a1.21,1.21,0,0,1,1.14,1.14c0,.76-.38.76-1.14.76Zm0,1.52h.76l1.52,3h1.9l-1.9-3.42c1.14,0,1.9-.38,1.9-1.9s-1.14-2.28-3-2.28h-3v7.47h1.9v-2.91Zm7.85-.76a6.51,6.51,0,0,0-6.71-6.71c-3.8,0-7.09,2.28-7.09,6.71s3.42,6.71,7.09,6.71a6.36,6.36,0,0,0,6.71-6.71Zm-1.77,0c0,3.42-2.28,5.19-4.81,5.19h0c-3,0-4.81-1.9-4.81-5.19,0-3,1.9-5.19,4.81-5.19a5.07,5.07,0,0,1,4.81,5.19Z"/><polygon class="cls-2" points="297.91 202.57 307.91 173.07 269.8 173.07 269.8 172.69 259.8 202.57 297.91 202.57"/><polygon class="cls-2" points="44.94 239.92 83.68 239.92 93.05 212.7 109.89 212.7 123.31 173.07 43.42 173.07 29.87 212.7 54.18 212.7 44.94 239.92"/><polygon class="cls-2" points="43.42 244.1 43.42 244.1 25.82 296.39 64.69 296.39 82.67 244.1 43.42 244.1"/><polygon class="cls-2" points="103.18 244.1 85.2 296.39 123.69 296.39 141.29 244.1 103.18 244.1"/><path class="cls-2" d="M104.7,239.92h79.64l6.71-20.13c3.42-10.89-3.8-18-15.32-18-8.23,0-16.84,2.28-26.21,18.36l16.08-47.1H127.11L104.7,239.92Z"/><polygon class="cls-2" points="145.34 244.1 127.87 296.39 164.84 296.39 182.82 244.1 145.34 244.1"/><path class="cls-2" d="M243.34,239.92,256,201.43c-17.22,0-21.65,7.09-28.74,16.84l4.05-11.9H199.53L188,240.05l55.33-.13Z"/><polygon class="cls-2" points="186.87 244.1 168.89 296.39 207 296.39 224.6 244.1 186.87 244.1"/><polygon class="cls-2" points="285.12 239.92 296.77 206.37 258.66 206.37 247.01 239.92 285.12 239.92"/><polygon class="cls-2" points="266.13 296.39 283.6 244.1 245.87 244.1 228.02 296.39 266.13 296.39"/><path class="cls-2" d="M340.45,239.92l11.27-33.68H333.36c-.76,0-3.42.76-3.42-1.14s.76-2.66,3.42-2.66h23.93l9.75-29.5H328.93c-13.8,0-19.37,8.61-23.55,19.37L289.3,239.79h51.15Z"/><polygon class="cls-2" points="326.27 244.1 287.78 244.1 270.18 296.39 308.29 296.39 326.27 244.1"/><polygon class="cls-2" points="373.75 296.39 391.22 244.1 351.72 244.1 334.12 296.39 373.75 296.39"/><polygon class="cls-2" points="423 239.92 420.85 206.37 402.11 206.37 413.38 173.07 413.63 173.07 377.8 173.07 366.28 206.37 355.77 206.37 344.63 239.92 423 239.92"/><polygon class="cls-2" points="391.22 244.1 393.88 284.11 357.67 338.93 396.54 338.93 460.73 244.1 391.22 244.1"/><polygon class="cls-2" points="445.41 206.37 423 239.92 463.77 239.92 486.18 206.37 445.41 206.37"/></svg>